<?xml version="1.0" encoding="utf-8"?>
<!-- Generator: Adobe Illustrator 21.0.0, SVG Export Plug-In . SVG Version: 6.00 Build 0)  -->
<svg version="1.1" id="Calque_1" xmlns="http://www.w3.org/2000/svg" xmlns:xlink="http://www.w3.org/1999/xlink" x="0px" y="0px"
	 viewBox="0 0 178 70" style="enable-background:new 0 0 178 70;" xml:space="preserve">
<style type="text/css">
	.st0{fill:#0B0C0C;}
</style>
<g>
	<path class="st0" d="M79.3,42.2c0-0.3-0.1-0.5-0.3-0.7C79.1,41.8,79.1,42,79.3,42.2z"/>
	<path class="st0" d="M90.2,60.7C90.2,60.7,90.2,60.7,90.2,60.7C90.2,60.7,90.2,60.7,90.2,60.7C90.2,60.7,90.2,60.7,90.2,60.7z"/>
	<path class="st0" d="M90,60.8L90,60.8C90,60.8,90,60.8,90,60.8C89.9,60.8,90,60.8,90,60.8z"/>
	<path class="st0" d="M113.2,60.3C113.2,60.3,113.2,60.3,113.2,60.3c0-0.1,0-0.1,0-0.1c-0.1,0-0.1,0-0.2-0.1
		C113.1,60.2,113.2,60.2,113.2,60.3z"/>
	<path class="st0" d="M132.4,43.8C132.4,43.8,132.4,43.8,132.4,43.8C132.4,43.8,132.4,43.8,132.4,43.8
		C132.4,43.8,132.4,43.8,132.4,43.8z"/>
	<path class="st0" d="M110.3,60.2C110.3,60.2,110.3,60.2,110.3,60.2C110.3,60.2,110.3,60.2,110.3,60.2
		C110.3,60.2,110.3,60.2,110.3,60.2C110.3,60.2,110.3,60.2,110.3,60.2z"/>
	<path class="st0" d="M123.4,60C123.4,60,123.4,60,123.4,60C123.4,60,123.4,60,123.4,60C123.4,60,123.4,60,123.4,60
		C123.4,59.9,123.4,60,123.4,60z"/>
	<path class="st0" d="M111.3,60.1C111.3,60.1,111.3,60.1,111.3,60.1C111.3,60.1,111.3,60.1,111.3,60.1
		C111.3,60.1,111.3,60.1,111.3,60.1C111.3,60.1,111.3,60.1,111.3,60.1z"/>
	<path class="st0" d="M130.3,52C130.3,52,130.3,52,130.3,52C130.3,51.9,130.3,51.9,130.3,52C130.3,51.9,130.3,51.9,130.3,52z"/>
	<path class="st0" d="M124.5,58.5C124.5,58.5,124.5,58.5,124.5,58.5L124.5,58.5C124.5,58.5,124.5,58.4,124.5,58.5
		C124.5,58.4,124.5,58.4,124.5,58.5z"/>
	<path class="st0" d="M132.7,44.5C132.7,44.5,132.7,44.5,132.7,44.5C132.7,44.5,132.7,44.5,132.7,44.5L132.7,44.5z"/>
	<polygon class="st0" points="130.5,11.5 130.5,11.5 130.5,11.5 	"/>
	<path class="st0" d="M129.2,53.2C129.2,53.2,129.2,53.2,129.2,53.2C129.2,53.2,129.2,53.2,129.2,53.2
		C129.2,53.2,129.2,53.2,129.2,53.2z"/>
	<path class="st0" d="M128.8,54.6C128.8,54.6,128.8,54.6,128.8,54.6C128.8,54.6,128.8,54.6,128.8,54.6
		C128.8,54.6,128.8,54.6,128.8,54.6C128.8,54.6,128.8,54.6,128.8,54.6z"/>
	<path class="st0" d="M177,49.1c0-0.1-0.1-0.2-0.1-0.3c0-0.1,0.1-0.3,0.1-0.4c0-0.1-0.1-0.3-0.1-0.4c0-0.1,0-0.1,0.1-0.2
		c0-0.1,0-0.1,0-0.1c-0.1-0.2-0.1-0.4-0.1-0.6c0-0.2-0.2-0.5-0.4-0.7c-0.2-0.2-0.5-0.2-0.7-0.4c-0.1-0.1-0.3,0-0.4-0.1
		c0,0-0.1,0-0.1,0c-0.1,0-0.2,0.1-0.3,0c-0.1,0-0.2,0-0.3-0.1c-0.1-0.1-0.2-0.2-0.3-0.3c0-0.1-0.1-0.2-0.1-0.2
		c-0.3,0-0.5-0.1-0.5-0.4c0,0-0.1,0-0.1,0c-0.1-0.1-0.1-0.2-0.3-0.2c-0.1-0.2-0.3-0.2-0.5-0.3c-0.1,0-0.3,0-0.4,0
		c-0.2,0.1-0.2,0.2-0.2,0.3c-0.1,0.2-0.2,0.3-0.4,0.5c-0.3,0.2-0.5,0.3-0.7,0.6c-0.1,0.2-0.3,0.3-0.5,0.4c-0.4,0.2-0.7,0.3-1.1,0.4
		c-0.3,0.1-0.5,0.2-0.8,0.3c0,0.2-0.2,0.2-0.4,0.2c-0.1,0-0.2,0.1-0.3,0.1c-0.1,0.1-0.2,0.1-0.3,0.1c-0.1,0.1-0.2,0.1-0.3,0.2
		c-0.1,0.1-0.1,0.2-0.2,0.2c-0.1,0.1-0.2,0-0.3,0.1c-0.2,0.2-0.4,0.3-0.6,0.4c-0.2,0.2-0.4,0.2-0.6,0.4c-0.1,0.1-0.3,0.1-0.4,0.2
		c-0.3,0-0.5,0.2-0.7,0.3c-0.3,0.1-0.5,0.2-0.7,0.3c0,0,0,0.1-0.1,0.1c-0.5,0-0.9,0.3-1.3,0.4c-0.5,0.1-1,0.3-1.5,0.4
		c-0.3,0.1-0.6,0.2-1,0.2c-0.1,0.2-0.4,0-0.6,0.2c-0.2,0.1-0.4,0.1-0.6,0.1c-0.3,0.1-0.6,0.1-0.9,0.2c-0.1,0-0.1,0.1-0.2,0.1
		c-0.2,0-0.4,0-0.5,0c-0.2,0-0.4,0.1-0.5,0.1c-0.7,0-1.4,0-2.1,0c-0.1,0-0.3-0.1-0.4,0c-0.1-0.1-0.3,0.1-0.4,0
		c-0.2-0.1-0.4-0.1-0.5-0.1c-0.2,0-0.5,0.1-0.7,0c-0.2-0.1-0.3,0-0.5-0.1c-0.2-0.1-0.3,0-0.5-0.1c-0.1,0-0.2,0-0.2,0
		c-0.3-0.1-0.6-0.2-0.9-0.2c-0.1,0-0.3-0.1-0.3-0.1c-0.1-0.1-0.1-0.2-0.2-0.3c-0.1-0.4-0.4-0.8-0.5-1.3c-0.1-0.2-0.2-0.5-0.3-0.7
		c-0.1-0.2-0.2-0.5-0.3-0.8c-0.1-0.2-0.1-0.5-0.2-0.7c-0.1-0.2-0.1-0.4-0.2-0.5c-0.1-0.2,0-0.3-0.1-0.5c-0.1-0.2-0.2-0.5-0.2-0.8
		c0-0.4-0.1-0.7,0-1c0,0,0,0-0.1-0.1c0,0,0,0,0.1,0c0-0.1,0.1-0.1,0-0.3c-0.1-0.1,0-0.2,0-0.4c0,0,0,0,0.1,0c0,0.1,0,0.2,0,0.3
		c0.1,0,0.2-0.1,0.2-0.1c0.1,0,0.2,0,0.2,0c0-0.2,0-0.3,0-0.5c0.1,0,0,0.2,0.2,0.1c0.1,0,0.2,0,0.3-0.1c0-0.1,0-0.3,0.1-0.4
		c0.1,0,0.2-0.1,0.3-0.1c0.2,0,0.3,0,0.4,0.1c0,0,0,0,0.1,0c0,0,0-0.1,0-0.1c0.1,0,0.3,0,0.4,0c0-0.1,0-0.2,0-0.2c0,0,0,0,0,0
		c0,0.1,0,0.2,0,0.2c0.3,0,0.3,0,0.2-0.3c0-0.2-0.1-0.3-0.1-0.5c0-0.1,0-0.1-0.1-0.2c0.3-0.3,0.6-0.1,1-0.1c-0.3-0.2,0.1-0.4,0-0.4
		c-0.2,0-0.3-0.2-0.4-0.1c0.1-0.1,0.1-0.2,0.2-0.3c0.1-0.1,0.2-0.1,0.2,0c0,0.2,0.2,0.1,0.3,0.2c0,0,0,0.1-0.1,0.1
		c0.2,0,0.2,0,0.4-0.1c0.1,0,0.1-0.1,0.2-0.1c0.2,0,0.3,0.1,0.6,0.2c-0.4,0-0.4,0-0.5,0.3c0,0,0.1,0.1,0.1,0.1c0,0.1,0,0.2-0.1,0.2
		c-0.1,0.1-0.2,0.1-0.3,0.1c-0.1,0-0.2-0.1-0.3-0.2c0,0.1,0,0.2,0,0.2c0,0,0.1,0.1,0.1,0.1c0,0,0,0.1-0.1,0.2c0.3,0,0.6,0,0.8-0.1
		c0.1,0.1,0.1,0.4,0.4,0.2c0-0.1,0-0.1,0-0.2c0.2,0,0.3,0,0.4,0c0.1,0,0.3,0,0.4,0.1c0.1,0.1,0.3,0,0.4,0c0.1,0.1,0.3,0.1,0.4,0
		c0,0.1,0,0.2,0,0.2c0.1,0,0.2,0,0.3,0c0-0.1-0.1-0.2-0.1-0.4C155,42,155,42,155.1,42c0,0,0.1,0,0.2,0c0-0.1,0-0.2,0.1-0.2
		c0,0,0,0.1,0.1,0.1c0,0.1,0.1,0.2,0.2,0.2c0.1,0,0.2,0,0.2,0c0.2-0.1,0.2-0.1,0.1-0.3c-0.1-0.2,0-0.3,0.1-0.3c0.1,0,0.1,0,0.2,0
		c0.1,0,0.3-0.2,0.3-0.3c0-0.1,0-0.2-0.1-0.3c0,0-0.1-0.2-0.2-0.2c0.2-0.2,0.3-0.3,0.4-0.4c0,0-0.1,0-0.2-0.1c0.1,0,0.2,0,0.3-0.1
		c0.1,0,0.1-0.1,0.2-0.2c0,0.1,0.1,0.1,0.1,0.2c0.1,0,0.2,0,0.4,0c0,0,0,0,0,0c0,0,0,0,0,0c0,0,0.1,0,0,0c0,0,0,0,0,0c0,0,0,0,0,0
		c-0.1,0.2-0.2,0-0.3,0.2c0,0.1,0,0.1,0,0.2c0,0,0.1,0,0.2,0c0,0,0,0,0,0c0,0,0,0,0,0c0,0,0.1,0,0,0c0,0,0,0,0,0c0,0,0,0,0,0
		c0,0.2-0.3,0-0.3,0.2c0.1,0.1,0.3,0.2,0.4,0.3c0,0.1,0,0.2,0,0.3c0,0.1,0,0.2,0,0.3c0.1,0,0.1,0,0.2,0c0.2-0.1,0.2-0.1,0.5-0.1
		c0,0,0.1,0,0.1,0c0.1-0.2,0.3,0,0.4-0.2c0.3,0,0.6-0.2,0.9,0c0-0.1,0.1-0.1,0.1-0.2c0.2,0.2,0.3,0.1,0.4,0c0-0.1,0-0.1-0.1-0.2
		c0.2,0,0.3,0,0.4,0c0.1,0,0.3,0,0.4-0.1c0.5-0.1,0.3-0.1,0.8,0c0.1,0,0.2,0.1,0.2,0.2c0,0.1,0.2,0.1,0.2,0c0.1-0.1,0.2-0.2,0.3-0.4
		c0.1,0.1,0.2,0.1,0.3,0.2c0.1-0.1,0.2-0.2,0.4-0.2c0.1,0.2,0.1,0,0.1-0.1c0.2,0.1,0.2,0.1,0.3-0.1c0,0,0.1-0.1,0.2-0.1
		c0.1,0.1,0.1,0,0.2,0c0.1,0,0.2,0,0.3,0.1c0-0.1,0-0.2,0-0.3c0.1,0,0.1,0.1,0.2,0.1c0.1,0,0.2,0,0.2,0c0-0.2,0.2-0.1,0.2-0.2
		c0-0.1,0-0.2,0-0.3c0.1,0,0.3,0,0.3,0c0.1-0.2,0.3-0.1,0.4-0.1c0.1,0,0.2,0,0.2-0.1c0-0.2,0.2-0.2,0.3-0.3c0.1-0.1,0.2-0.1,0.3,0.1
		c0.1-0.1,0.1-0.2,0.2-0.3c0.2,0,0.4,0,0.6-0.2c0,0,0.1-0.1,0.1-0.1c0.2,0,0.2-0.2,0.3-0.3l0.1-0.2c0.1,0,0.1-0.1,0.1-0.2
		c0,0-0.1-0.1-0.1-0.1c0,0,0,0,0.1,0c0.1,0.1,0.2,0.1,0.3,0.1c0,0,0.2,0.1,0.2,0c0.1-0.2,0.3-0.1,0.4-0.2c0.1-0.1,0.3-0.1,0.3-0.3
		c0.1-0.2,0.3-0.3,0.4-0.4c0,0,0,0,0.1-0.1c0,0,0,0,0,0.1c0.1-0.1,0.2-0.1,0.3,0c0-0.1,0.1-0.1,0.1-0.2c0.1-0.1,0.2-0.1,0.3-0.1
		c0,0,0,0,0-0.1c0.1-0.1,0.2-0.3,0.2-0.5c0.1,0,0.3,0,0.4,0c0-0.1,0-0.2,0-0.2c0,0,0.1-0.3,0.2-0.3c0.2,0,0.2-0.2,0.3-0.3
		c0.1-0.1,0.1-0.2,0.3-0.2c0,0,0,0.1,0,0.1c0,0.1,0.2-0.1,0.2,0c0,0,0-0.1,0-0.1c0-0.1,0-0.4,0.1-0.4c0.1,0,0.1-0.1,0.1-0.2
		c0-0.1,0-0.1,0-0.2c0.1-0.1,0.1-0.3,0.1-0.3c0-0.1,0-0.2,0.1-0.4c0.1-0.1,0.1-0.3,0.1-0.4c0-0.3,0-0.3,0.1-0.5c0,0.1,0,0.3,0,0.4
		c0.2,0,0.2-0.2,0.3-0.2c0-0.1-0.1-0.2-0.1-0.2c0-0.1,0.2-0.1,0.1-0.2c0.1-0.1,0.2-0.2,0.2-0.2c0-0.1-0.1-0.1,0-0.2
		c0,0,0.1-0.1,0.1-0.1c-0.1-0.1,0-0.2,0-0.3c0-0.1,0-0.3,0-0.5c0-0.1,0.1-0.1,0-0.2c0-0.1-0.1-0.1-0.1-0.2c0-0.1,0-0.1,0-0.2
		c0,0,0-0.1,0-0.1c-0.1-0.1,0-0.2-0.1-0.3c-0.1-0.1,0.1-0.2,0-0.3c0,0,0-0.1,0-0.1c-0.1,0-0.2,0-0.3,0c0.2-0.1,0.2-0.1,0.1-0.3
		c0,0,0,0,0-0.1c-0.1-0.3-0.2-0.6-0.4-0.9c0.3-0.1,0.2,0.3,0.4,0.2c0,0,0-0.1,0-0.2c0.1-0.2,0.1-0.2,0-0.4c0-0.1-0.1-0.1-0.1-0.2
		c0,0,0.1,0,0.2-0.1c-0.1-0.2-0.1-0.4-0.3-0.5c0,0,0,0,0-0.1c0,0-0.1-0.1-0.1-0.1c0,0,0,0,0.1,0c0.1,0.1,0.2,0,0.3,0
		c-0.1-0.2-0.2-0.3-0.3-0.5c-0.1-0.1-0.1-0.2-0.1-0.4c0-0.1,0-0.3,0-0.5c0.1,0,0.1,0.1,0.2,0.1c0-0.2,0-0.3,0-0.5
		c0.1,0.1,0.1,0.1,0.1,0.1c0.1-0.1,0-0.2,0-0.3c0.1,0,0.1,0,0.2-0.1c-0.1-0.2-0.3-0.3-0.1-0.5c0,0,0-0.1,0-0.1
		c-0.1-0.2-0.1-0.3-0.2-0.5c0,0,0,0,0-0.1c0,0,0.1,0.1,0.1,0.1c0.1,0,0.1,0,0.2,0c-0.1,0.2,0,0.4,0.1,0.5c0.2,0.2,0.4,0.2,0.7,0.3
		c-0.2-0.3-0.3-0.4-0.6-0.6c0-0.1,0-0.3,0-0.4c-0.1,0-0.2,0-0.3,0c0-0.1,0-0.1,0-0.2c0.3,0.1,0.6,0.3,0.9,0.4c0-0.1,0.1-0.2,0.1-0.3
		c-0.1-0.1-0.2-0.2-0.3-0.2c-0.2-0.1,0-0.3-0.1-0.4c0,0-0.1-0.1-0.1-0.2c-0.3-0.3-0.6-0.6-0.9-1c-0.1-0.1-0.2-0.1-0.2-0.2
		c-0.1-0.2-0.3-0.3-0.4-0.5c-0.1-0.1-0.2-0.2-0.3-0.1c-0.3,0.1-0.4-0.1-0.6-0.2c-0.1-0.1-0.1-0.1-0.2-0.2c-0.3-0.2-0.6-0.3-0.8-0.6
		c-0.2-0.3-0.6-0.4-1-0.4c-0.2,0-0.4,0-0.5,0c-0.2,0-0.4-0.1-0.6-0.2c-0.1,0-0.1-0.2-0.2-0.2c-0.1-0.1-0.2-0.2-0.3-0.2
		c-0.2,0-0.2-0.2-0.2-0.3c0,0,0,0-0.1,0c-0.2,0-0.3-0.2-0.4-0.2c0,0,0-0.1-0.1-0.2c0.2,0,0.2,0.1,0.3,0.1c0.1,0,0.2-0.1,0.3-0.1
		c-0.1-0.1-0.3-0.2-0.4-0.3c-0.1-0.1-0.3-0.2-0.4-0.4c0.3-0.1,0.4,0.1,0.6,0.1c0.2,0,0.4,0.1,0.6,0.3c0.2-0.2,0.2-0.3,0.1-0.3
		c-0.2-0.1-0.4-0.3-0.7-0.4c-0.4-0.1-0.7-0.3-1.1-0.5c-0.4-0.2-0.8-0.4-1.2-0.4c0,0-0.1,0-0.1,0c-0.2-0.1-0.4-0.1-0.5-0.2
		c-0.1-0.1-0.1,0.1-0.3,0c-0.1-0.1-0.2,0-0.3,0c-0.1,0-0.2,0-0.4,0c-0.6-0.2-1.2-0.4-1.9-0.4c-0.1,0-0.1,0-0.2-0.1
		c-0.2,0-0.4-0.1-0.5-0.1c-0.1,0.1-0.2,0-0.3,0c-0.1,0-0.3,0-0.4,0c-0.1-0.1-0.2,0-0.3,0c-0.3-0.1-0.7-0.1-1.1-0.1
		c-0.1,0-0.2,0-0.3,0c0,0-0.1,0.1-0.1,0.1c0-0.1-0.1-0.1-0.1-0.2c-0.1,0.1-0.2,0.1-0.3,0.2c-0.1-0.1-0.2-0.1-0.3-0.2
		c-0.1,0.2-0.2,0.3-0.4,0.3c-0.2,0.2-0.4,0-0.6-0.1c-0.2-0.1-0.4-0.3-0.7-0.2c-0.3,0-0.6,0.1-0.8,0.1c-0.3,0-0.6,0-0.9,0.1
		c-0.1,0.1-0.3,0-0.5,0.1c-0.2,0-0.4,0-0.5,0.1c-0.2,0.1-0.3-0.1-0.4,0c-0.2,0.1-0.4,0-0.6,0.1c-0.3,0.1-0.6,0.2-0.8,0.2
		c-0.2,0-0.4,0.1-0.6,0.1c0,0-0.1,0.1-0.1,0.1c-0.4,0-0.7,0.2-1,0.2c-0.6,0.2-1.3,0.3-1.9,0.7c-0.2,0.1-0.5,0.1-0.6,0.3
		c0,0-0.1,0-0.1,0c-0.5,0-1,0.3-1.5,0.6c-0.3,0.2-0.5,0.4-0.8,0.5c-0.4,0.2-0.8,0.4-1.2,0.6c-0.2,0.1-0.4,0.3-0.6,0.4
		c-0.6,0.3-0.7,0.4-1,0.7c0,0-0.1,0.1-0.2,0.1c0,0.1,0,0.2,0,0.3c-0.1,0-0.2-0.1-0.2-0.1c-0.1,0.1-0.3,0.2-0.3,0.3
		c-0.1,0.1-0.1,0.3-0.2,0.4c0,0-0.1,0-0.1-0.1c0,0.1,0,0.2-0.1,0.3c0-0.1-0.1-0.2-0.1-0.2c-0.1,0-0.1,0-0.2,0.1
		c-0.1,0.1-0.2,0.2-0.2,0.3c0,0.2-0.2,0.2-0.2,0.4c0,0.2-0.1,0.2-0.3,0.3c-0.1,0-0.1,0-0.2,0c0,0.1,0,0.3,0,0.4
		c0,0.1-0.1,0.3-0.2,0.3c0,0,0,0-0.1,0c0,0,0,0.1,0,0.1c-0.1,0.1-0.1,0.2-0.2,0.3c0-0.1,0-0.1,0-0.2c0-0.1,0-0.3,0-0.3
		c0.2-0.1,0-0.2,0-0.3c0.1-0.1,0.1-0.2,0.1-0.4c0-0.1,0.2-0.2,0.1-0.3c0-0.1,0-0.2,0-0.3c0.1-0.1,0-0.3,0.2-0.4
		c0.1-0.1,0.1-0.2,0-0.3c-0.1-0.2,0.2-0.1,0.2-0.2c0,0,0,0,0,0c0-0.2,0-0.3,0.1-0.5c0.1-0.1,0.1-0.3,0.2-0.5c-0.2-0.2,0-0.4,0.1-0.6
		c0-0.1,0.1-0.2,0.1-0.3c0-0.1,0.1-0.2,0.1-0.3c0.1-0.3,0.2-0.6,0.3-0.9c0.1-0.2,0.1-0.4,0.2-0.6c0-0.2,0.3-0.3,0.1-0.6
		c0.1-0.2,0.2-0.4,0.3-0.6c0,0,0-0.1,0-0.1c0-0.4,0.2-0.8,0.3-1.1c0.1-0.2,0-0.5,0.2-0.7c0.1-0.2,0.2-0.5,0.2-0.7
		c0-0.2,0-0.3,0.1-0.4c0.1-0.2,0.2-0.3,0.2-0.5c0.1-0.2,0.2-0.5,0.1-0.7c-0.1-0.2-0.1-0.4-0.1-0.6c0-0.6-0.1-0.8-0.4-1.6
		c-0.1-0.2-0.2-0.4-0.3-0.6c-0.1-0.2-0.2-0.4-0.3-0.7c-0.1-0.2-0.2-0.4-0.2-0.7c0-0.3-0.1-0.5-0.2-0.8c-0.1-0.3-0.2-0.5-0.3-0.8
		c-0.1-0.1-0.1-0.2-0.2-0.3c0,0-0.1-0.1-0.1-0.1c0.1-0.1,0-0.3-0.1-0.4c0-0.1-0.2-0.2-0.2-0.4c-0.1-0.1-0.1-0.2-0.2-0.2
		c-0.1,0-0.2-0.2-0.3-0.3c-0.3-0.2-0.3-0.8-0.9-0.6c0,0-0.1,0-0.1-0.1c0-0.2-0.1-0.1-0.2-0.1c-0.1,0-0.2-0.1-0.3-0.1
		c-0.2-0.2-0.2-0.2-0.5,0c-0.1,0.1-0.2,0.1-0.2-0.1c0,0,0-0.1,0-0.1c0-0.1-0.1-0.2-0.2-0.2c-0.1,0-0.2,0.1-0.2,0.2
		c0,0.1,0,0.2,0,0.2c0,0.1-0.1,0.1-0.2,0.2c0,0,0-0.1,0-0.1c0.1-0.1,0-0.1,0-0.1c-0.1,0.1-0.4,0-0.4,0.3c0,0.1-0.2,0.2-0.3,0.3
		c-0.1,0.1-0.2,0.2-0.3,0.3c-0.1,0-0.1,0.2-0.2,0.3c-0.3,0.3-0.7,0.5-1,0.8C135,4.9,134.9,5,134.7,5c-0.1,0-0.1,0-0.2,0.1
		c-0.3,0.1-0.6,0.3-0.9,0.5c-0.1,0.1-0.2,0.2-0.3,0.3c-0.1,0.1-0.2,0.2-0.4,0.3c-0.3,0.2-0.5,0.6-0.7,0.9c-0.1,0.1,0,0.3-0.1,0.4
		c-0.1,0.1,0,0.2,0,0.3c-0.1,0.3-0.3,0.5-0.5,0.7c0,0-0.1,0-0.2,0c-0.1-0.1-0.1-0.1-0.1,0c0,0.1,0.1,0.2-0.1,0.3
		C131.2,8.9,131,9,131,9c-0.3-0.3-0.3,0.1-0.3,0.2c-0.1,0.2-0.2,0.3-0.3,0.5c-0.1,0.1-0.2,0.2-0.1,0.5c0.2,0.3-0.1,0.5-0.2,0.8
		c0,0.2-0.2,0.3-0.3,0.4c0,0-0.1,0-0.1,0c-0.2-0.1-0.3,0.2-0.3,0.2c0,0.2-0.2,0.3-0.3,0.5c-0.2,0.2-0.1-0.1-0.2-0.1
		c0,0.1-0.1,0.2-0.1,0.3c0,0.2-0.2,0.2-0.3,0.3c-0.2,0.1-0.4,0.4-0.5,0.5c-0.3,0.3-0.4,0.6-0.6,0.9c-0.2,0.4-0.5,0.7-0.6,1.1
		c-0.2,0.5-0.6,0.8-0.7,1.3c0,0.1-0.2,0.2-0.3,0.4c-0.1,0.4-0.3,0.8-0.5,1.2c-0.1,0.3-0.2,0.6-0.3,0.9c-0.1,0.4-0.2,0.8-0.4,1.2
		c0,0.1-0.1,0.1-0.1,0.2c0,0.3-0.2,0.4-0.3,0.7c-0.1,0.2-0.2,0.5-0.3,0.7c-0.2,0.5-0.4,1-0.5,1.5c-0.1,0.4-0.3,0.8-0.4,1.1
		c0,0.1-0.4,0.9-0.4,1c0,0.2-0.1,0.4-0.1,0.6c0,0.2-0.1,0.4-0.2,0.6c-0.1,0.4-0.2,0.8-0.4,1.1c-0.1,0.2-0.3,0.4-0.3,0.7
		c0,0.1-0.1,0.3-0.1,0.4c0,0.2-0.2,0.3-0.2,0.5c-0.1,0.3-0.2,0.6-0.2,1c0,0.2-0.1,0.5-0.2,0.7c-0.1,0.2-0.2,0.5-0.2,0.7
		c0,0,0,0.1,0,0.1c-0.4,0.3-0.3,0.9-0.6,1.2c0,0,0,0.1,0,0.1c0,0.2-0.1,0.3-0.1,0.4c0,0.1-0.1,0.2-0.1,0.4c-0.1,0.3-0.2,0.7-0.4,1
		c-0.1,0.3-0.3,0.6-0.4,0.9c-0.1,0.3-0.3,0.6-0.4,0.9c0,0.2-0.2,0.3-0.2,0.4c-0.1,0.4-0.4,0.7-0.4,1.1c-0.2,0.1-0.2,0.4-0.3,0.6
		c-0.1,0.2-0.3,0.4-0.2,0.7c-0.2,0.1,0,0.3-0.2,0.5c-0.1,0.1-0.2,0.2,0,0.3c0,0,0,0.1,0,0.1c0,0-0.1,0-0.1,0
		c-0.1-0.1-0.2-0.3-0.1-0.4c0-0.4-0.1-0.7-0.2-1.1c0-0.1-0.1-0.3-0.1-0.4c0-0.2-0.1-0.5-0.1-0.7c-0.2-0.4-0.3-0.9-0.4-1.4
		c-0.1-0.4-0.2-0.8-0.3-1.2c-0.1-0.4-0.1-0.9-0.4-1.2c0,0,0-0.1,0-0.1c-0.1-0.3-0.1-0.7-0.3-1c-0.1-0.1-0.1-0.3-0.1-0.4
		c-0.1-0.2-0.1-0.5-0.2-0.6c-0.2-0.2,0-0.5-0.2-0.6c0-0.2-0.2-0.4-0.2-0.5c-0.1-0.3-0.1-0.6-0.2-0.9c-0.1-0.3-0.2-0.7-0.3-1
		c-0.1-0.2-0.2-0.5-0.1-0.8c0-0.1,0-0.3,0-0.4c-0.1-0.3-0.2-0.7-0.3-1c0-0.1,0-0.2,0-0.3c-0.1-0.1-0.2-0.2-0.2-0.4
		c0-0.2-0.1-0.3-0.2-0.4c-0.1-0.1,0-0.2-0.1-0.4c-0.2-0.2-0.2-0.5-0.2-0.8c0-0.1,0-0.3,0-0.4c-0.2-0.5-0.3-1-0.5-1.5
		c-0.1-0.2-0.2-0.5-0.2-0.7c0-0.2,0-0.4-0.2-0.6c-0.1-0.1-0.1-0.2-0.1-0.3c-0.1-0.4-0.3-0.8-0.4-1.2c-0.1-0.3-0.2-0.5-0.3-0.8
		c-0.1-0.3-0.3-0.5-0.4-0.8c-0.2-0.4-0.3-0.8-0.7-1.1c-0.1-0.1-0.2-0.2-0.2-0.3c0-0.2-0.1-0.2-0.2-0.3c-0.2-0.1-0.3-0.3-0.6-0.3
		c-0.1,0-0.2-0.1-0.2-0.1c-0.1-0.3-0.3-0.3-0.6-0.2c0,0-0.1,0-0.1,0c0-0.1,0.1-0.1,0.1-0.2c-0.1,0-0.2,0-0.2,0c0,0-0.1,0-0.1-0.1
		c0-0.1-0.1-0.1-0.1-0.1c-0.2,0-0.4,0-0.5,0.1c-0.4,0.3-1,0.5-1.4,0.9c-0.2,0.3-0.5,0.5-0.8,0.8c0,0.2-0.3,0.3-0.2,0.5
		c0,0.2,0,0.2-0.3,0.3c-0.1,0-0.1,0.1-0.2,0.1c-0.3,0.2-0.4,0.7-0.7,0.9c0,0,0,0.1,0,0.1c-0.2,0.5-0.3,1-0.4,1.5
		c-0.1,0.4-0.1,0.9-0.2,1.4c0,0.2-0.1,0.4-0.1,0.7c0,0.2-0.1,0.5-0.1,0.7c0,0.6-0.1,1.1-0.1,1.7c0,0.2,0,0.5,0,0.7
		c0.1,0.2-0.1,0.4,0,0.6c0,0.1,0,0.2,0,0.3c0.1,0.1,0.1,0.2,0.1,0.3c0,0.1,0,0.2,0.1,0.3c0,0-0.1,0.1-0.1,0.2c0,0.2-0.1,0.4,0,0.5
		c0.1,0.2,0.1,0.4,0.1,0.6c0,0.2,0.1,0.4,0.1,0.6c0,0.1-0.1,0.3,0.2,0.3c0,0,0,0.1,0,0.1c-0.1,0.1-0.1,0.2,0,0.3c0,0.1,0,0.2,0,0.3
		c-0.1-0.2-0.1-0.3-0.1-0.5c0-0.1,0-0.2-0.1-0.2c-0.1-0.1-0.2-0.2-0.2-0.4c0-0.1,0-0.1,0-0.2c-0.2,0-0.3-0.1-0.4-0.2
		c-0.1-0.1,0.2-0.1,0-0.2c-0.1,0-0.2-0.1-0.1-0.2c0.1-0.1,0-0.1,0-0.1c-0.1,0-0.1,0-0.2-0.1c-0.1-0.1-0.3-0.1-0.4-0.3
		c0-0.1-0.1-0.2-0.2-0.3c-0.2-0.2-0.3-0.3-0.4-0.5c-0.1-0.2-0.3-0.4-0.4-0.6c-0.1-0.2-0.2-0.3-0.4-0.3c0-0.1,0-0.2-0.1-0.3
		c-0.1,0.1-0.1,0.1-0.1,0.1c-0.1-0.1-0.1-0.2-0.2-0.2c-0.1-0.1-0.1-0.2-0.1-0.3c-0.1,0-0.2-0.2-0.3-0.1c-0.1-0.2-0.3-0.4-0.6-0.6
		c0-0.1,0.1-0.1,0.1-0.2c0-0.1-0.1-0.1-0.1-0.2c-0.2,0-0.3,0-0.4-0.2c-0.1-0.1-0.2-0.1-0.3-0.2c-0.1-0.1-0.2-0.2-0.3-0.2
		c-0.1-0.1-0.2-0.1-0.3-0.2c-0.1-0.1-0.2-0.1-0.3-0.2c-0.1-0.1-0.2,0-0.3-0.1c-0.1-0.1-0.2-0.2-0.3-0.2c-0.6-0.3-1.2-0.6-1.8-0.9
		c-0.1,0-0.1-0.1-0.2-0.1c0,0.1-0.1,0.1-0.1,0.2c0-0.1-0.1-0.1-0.1-0.2c-0.2,0.2-0.4-0.1-0.6,0c0,0-0.1,0-0.2,0
		c-0.2,0-0.6-0.1-0.8-0.1c-0.3,0-0.5-0.1-0.8-0.2c0.2-0.1,0.3-0.3,0.5-0.4c0.4-0.4,1-0.7,1.4-1.1c0.2-0.2,0.3-0.4,0.3-0.7
		c0-0.1,0-0.3,0.1-0.4c0.2-0.2,0.1-0.5,0.1-0.7c0-0.2-0.2-0.3-0.2-0.5c-0.1-0.3-0.4-0.4-0.4-0.7c-0.3-0.6-0.3-0.6-0.9-1
		c0,0-0.1-0.1-0.1-0.1c-0.4-0.5-1-0.7-1.6-1c-0.1,0-0.2,0-0.2,0c-0.3-0.3-0.7-0.3-1-0.5c-0.2-0.1-0.4-0.2-0.6-0.2
		c-0.2-0.1-0.4,0-0.6-0.1c-0.5-0.2-1.1-0.3-1.7-0.3c-0.2,0-0.5-0.1-0.7,0c-0.2,0.1-0.4,0-0.5,0.1c-0.2,0.1-0.4,0.1-0.6,0.1
		c0,0-0.1,0-0.1,0c-0.1,0.2-0.3,0.1-0.5,0.1c-0.2,0-0.3,0.1-0.5,0.1c-0.4,0-0.7,0.1-1.1,0.2c-0.2,0.1-0.4,0-0.6,0.1
		c-0.2,0.1-0.4,0.1-0.6,0.1c-0.4,0.3-1,0.2-1.4,0.4c0,0-0.1,0-0.2,0c-0.1,0-0.2,0.1-0.3,0.1c-0.2,0-0.3,0.2-0.5,0.2
		c-0.5,0.1-1,0.4-1.4,0.6c-0.7,0.3-1.3,0.7-1.9,1c-0.2,0.1-0.4,0.2-0.5,0.3c-0.2-0.5-0.4-0.9-0.8-1.3c0,0,0-0.1,0-0.1
		c0-0.1-0.1-0.3-0.1-0.4c-0.2-0.4-0.4-0.8-0.6-1.2c-0.3-0.5-0.5-1-0.8-1.4c-0.2-0.4-0.4-0.8-0.6-1.2c-0.3-0.6-0.6-1.1-1.1-1.6
		c-0.1-0.1-0.2-0.1-0.3-0.2c-0.3-0.3-0.6-0.5-1.1-0.6c-0.3,0-0.7-0.1-0.9,0.2c0,0-0.1,0-0.1,0.1c-0.1,0.1-0.2,0.2-0.3,0.3
		c-0.1,0.1-0.1,0.3-0.2,0.4c0,0,0.1,0.1,0.1,0.1c0.2,0.2,0.2,0.2,0.1,0.5c-0.1,0.5,0,1,0.1,1.4c0,0.2,0.2,0.4,0.2,0.6
		c0,0.2,0.1,0.4,0.2,0.6c0,0.1,0.1,0.1,0.1,0.2c0,0.2,0.2,0.3,0,0.5c0.1,0.2,0.1,0.4,0.2,0.6c0.1,0.2,0.1,0.3,0,0.5
		c-0.1,0.2-0.1,0.5,0,0.7c0.1,0.2,0.2,0.3,0.3,0.5c0,0-0.1,0.1-0.1,0.1c-0.2,0.1-0.2,0.2-0.1,0.3c0.1,0.1,0.1,0.3,0.1,0.4
		c0.1,0.3,0,0.6,0.1,0.8c0,0.2,0.1,0.4,0.2,0.7c0.1,0.2,0.2,0.5,0.2,0.7c0,0.1,0,0.1,0,0.2c0.1,0.1,0.1,0.3,0.2,0.4
		c0.1,0.1,0.1,0.3,0.2,0.3c0.2,0.1,0.1,0.2,0.1,0.4c0,0,0,0,0.1,0c0,0-0.1,0.1-0.1,0.1c-0.2,0.1-0.1,0.3-0.3,0.3
		c0,0.2-0.3,0.2-0.4,0.4c-0.1,0.3-0.4,0.4-0.6,0.7c-0.3,0.3-0.5,0.6-0.8,0.8c-0.3,0.2-0.4,0.6-0.7,0.8c-0.3,0.4-0.7,0.8-1,1.2
		c-0.2,0.2-0.3,0.3-0.4,0.5c0.2-0.4,0.3-0.7,0.4-1.1c0.3-0.8,0.5-1.6,0.4-2.4c0-0.3,0-0.7,0.1-1c0.1-1,0-1.9-0.1-2.8
		c-0.1-0.7-0.4-1.4-0.7-2c0-0.1-0.1-0.2-0.2-0.3c-0.1-0.2-0.2-0.5-0.4-0.7c-0.1-0.2-0.2-0.3-0.2-0.5c-0.1-0.2-0.2-0.4-0.3-0.6
		c0-0.1-0.1-0.1-0.1-0.2c-0.2-0.4-0.5-0.7-0.7-1c-0.2-0.3-0.5-0.6-0.8-0.8c-0.3-0.2-0.5-0.4-0.8-0.6c-0.4-0.3-0.8-0.5-1.1-0.9
		c-0.1-0.1-0.1-0.1-0.2-0.1c-0.2,0-0.3-0.1-0.4-0.2c-0.2-0.1-0.3-0.3-0.5-0.3c-0.2-0.1-0.4-0.2-0.5-0.3c-0.1-0.1-0.2-0.2-0.4-0.2
		c-0.2,0-0.4-0.2-0.5-0.3c-0.2-0.2-0.5-0.4-0.8-0.4c-0.3-0.1-0.5-0.2-0.6-0.4c-0.2-0.2-0.4-0.3-0.7-0.3c-0.1,0-0.1,0-0.2,0
		C56.8,8,56.4,7.9,56,7.7c-0.1,0-0.3-0.1-0.4-0.2c-0.2-0.1-0.3-0.2-0.5-0.2c-0.1,0-0.3,0-0.4,0c-0.2-0.1-0.5-0.1-0.7-0.1
		c-0.1,0-0.1,0-0.2,0c-0.2,0-0.4-0.1-0.6-0.1c-0.1,0-0.3,0-0.4,0C52.5,7,52.3,7,52.1,7c-0.1,0-0.3,0-0.4-0.1c-0.3-0.1-0.6-0.2-1-0.2
		c-0.1,0-0.1,0-0.2,0c-0.2-0.1-0.5-0.1-0.7-0.1c-0.1,0-0.2,0-0.3,0c-0.3-0.2-0.6-0.1-1-0.1c-0.1,0-0.2,0-0.3,0
		c-0.2-0.1-0.4-0.1-0.6-0.1c-0.7,0-1.3,0-2,0c-0.3,0-0.6-0.1-0.9-0.1c-0.3,0-0.6,0.1-0.9,0.1c-0.3,0-0.6,0-0.9,0
		c-0.1,0-0.2,0-0.3-0.1c-0.3-0.1-0.5-0.1-0.8,0c-0.2,0.1-0.4,0.1-0.7,0.1c-0.2,0-0.4,0-0.7,0c-0.2,0-0.3,0.1-0.5,0.1
		c-0.1,0-0.2,0-0.3,0c-0.5,0-1,0-1.5,0c-0.1,0-0.1,0-0.2,0c-0.1,0.1-0.3,0.1-0.5,0.1c-0.3,0-0.7,0-1,0c-0.1,0-0.3,0-0.4,0
		c-0.2,0.1-0.5,0.1-0.7,0.1c-0.3,0-0.5,0-0.8,0.1C34.5,6.9,34.3,6.9,34,7c0,0-0.1,0-0.1,0c-0.3-0.1-0.6,0.1-1,0.1
		c-0.2,0-0.5,0-0.7,0.1c-0.1,0-0.2,0-0.3,0c-0.3,0.1-0.6,0.1-0.9,0c-0.1,0-0.3,0.1-0.4,0.1c-0.5,0-1.1,0.2-1.6,0.1
		c-0.2,0-0.4,0-0.5,0.1c-0.2,0.1-0.4,0-0.6,0c-0.5-0.2-0.9-0.2-1.3,0.2c-0.1,0.1-0.2,0.2-0.3,0.2c-0.2,0.1-0.4,0.1-0.6,0.1
		c-0.2,0-0.3,0.1-0.4,0.2c-0.1,0.1-0.2,0.2-0.4,0.2c-0.5,0-0.9,0.2-1.4,0.1c0,0-0.1,0-0.1,0c-0.2,0.1-0.4,0.1-0.6,0.1
		c-0.2,0-0.4,0-0.7,0c-0.2,0-0.4,0-0.5,0.2c-0.1,0.1-0.2,0.1-0.3,0.1c-0.1,0-0.2,0-0.3,0.1c-0.3,0.1-0.6,0.2-0.9,0.2
		c-0.3,0-0.5,0-0.8,0c-0.3,0-0.6,0-0.8,0.3c0,0,0,0-0.1,0.1c-0.1,0.1-0.2,0.1-0.3,0c-0.2-0.2-0.4-0.2-0.6,0
		c-0.1,0.1-0.3,0.1-0.4,0.1c-0.3,0-0.5-0.1-0.7,0.1c-0.2,0.2-0.5,0.1-0.7,0.2c-0.1,0-0.2,0.1-0.3,0.1c-0.3,0-0.7,0.1-1,0.1
		c0,0,0,0-0.1,0c-0.3,0.1-0.6,0.2-0.9,0.4c-0.2,0.1-0.3,0.1-0.5,0.1c-0.1,0-0.3,0-0.4,0.1c-0.3,0.2-0.6,0.3-0.9,0.3
		c-0.4,0-0.8,0-1.1,0.3c-0.1,0.1-0.2,0.1-0.3,0.1c-0.3,0-0.5,0-0.8,0.1c-0.2,0.1-0.5,0.2-0.8,0.2c-0.3,0.1-0.7,0.3-1,0.2
		c-0.1,0-0.2,0-0.3,0c-0.4,0.1-0.7,0.4-1,0.5c-0.1,0.1-0.2,0.1-0.3,0.1c-0.2,0-0.4,0.1-0.5,0.2c-0.2,0.3-0.5,0.5-0.9,0.6
		c-0.2,0.1-0.4,0.2-0.6,0.2c-0.3,0.1-0.5,0.4-0.8,0.4c0,0-0.1,0.1-0.1,0.1c-0.1,0.1-0.2,0.1-0.4,0.1c-0.1,0-0.3,0-0.4,0
		c-0.1,0-0.1,0-0.2,0.1c0,0.2-0.2,0.3-0.4,0.4c-0.2,0.1-0.4,0.3-0.5,0.5c-0.1,0.3-0.1,0.6,0,0.8c0.2,0.5,0,0.9-0.3,1.3
		C1,17.7,1,17.9,1,18.1c0,0.1,0.1,0.3,0.1,0.4c0,0.3,0,0.7,0,1c0,0.3,0,0.6,0.2,0.9c0.1,0.2,0.1,0.4,0.1,0.5
		c0.2,0.3,0.2,0.6,0.2,0.8c0.1,0.2,0,0.4-0.1,0.6c-0.1,0.2-0.1,0.4,0.1,0.6c0.1,0.1,0.1,0.2,0.1,0.3c0.1,0.3,0.2,0.5,0.4,0.7
		c0.1,0.2,0.2,0.3,0.2,0.5c0,0.2,0.1,0.3,0.3,0.4c0.2,0,0.3,0.1,0.4,0.2c0.1,0,0.1,0.1,0.2,0.1c0.2,0,0.3,0.1,0.4,0.3
		c0.1,0.2,0.3,0.3,0.5,0.3c0.1,0,0.2,0.1,0.3,0.2C4.7,26,4.8,26.2,5,26.3c0.1,0.1,0.2,0.1,0.3,0.1c0.2-0.1,0.4-0.2,0.5-0.3
		c0.3-0.3,0.7-0.2,1-0.1c0.3,0,0.5,0,0.7-0.2c0.1-0.1,0.3-0.3,0.5-0.3c0.1-0.1,0.3-0.1,0.4-0.2c0.2-0.2,0.3-0.3,0.5-0.3
		c0.4-0.1,0.8-0.3,1.2-0.5c0.5-0.2,0.9-0.4,1.5-0.4c0.2,0,0.3-0.1,0.5-0.2c0.1-0.1,0.3-0.3,0.4-0.3c0.4-0.1,0.7-0.2,1.1-0.1
		c0.1,0,0.2,0,0.4,0c0.1,0,0.3,0,0.3-0.2c0-0.1,0.2-0.2,0.3-0.2c0.1,0,0.3-0.1,0.4-0.1c0.2-0.1,0.4-0.1,0.6-0.1
		c0.1,0,0.2-0.1,0.3-0.1c0.1,0,0.1-0.1,0.2-0.1c0.3,0,0.7-0.1,1-0.1c0.1,0,0.1,0,0.2,0c0.1,0,0.2,0,0.2-0.1c0.4-0.1,0.7-0.1,1.1-0.2
		c0.1,0,0.2-0.1,0.2-0.1c0.1-0.1,0.3-0.1,0.4-0.1c0.2,0,0.3,0,0.5,0c0.3-0.1,0.5-0.1,0.8-0.1c0.6,0,1.2,0,1.7-0.2
		c0.2-0.1,0.4,0,0.6,0c0,0.2,0,0.4,0,0.5c0,0,0,0,0,0.1c-0.2,0.3-0.1,0.7-0.1,1c0,0.1,0,0.2,0,0.3c0,0.2-0.1,0.4-0.1,0.6
		c0,0.1,0,0.2,0,0.3c-0.1,0.3-0.1,0.6-0.1,0.8c0,0.4,0,0.8,0,1.2c0,0.2,0.1,0.4,0.1,0.5c0,0.1,0,0.3,0,0.4c0,0.2-0.1,0.4-0.1,0.6
		c0,0.6,0,1.3,0,1.9c0,0.2,0,0.3-0.1,0.5c0,0.1-0.1,0.3,0,0.4c0.1,0.2,0.1,0.4,0.1,0.6c0,0.5,0,1,0,1.4c0,0.1,0,0.2-0.1,0.3
		c-0.1,0.3-0.1,0.6,0,0.8c0.1,0.3,0.1,0.8,0,1.1c-0.1,0.2-0.1,0.4,0,0.6c0.1,0.2,0.1,0.4,0,0.6c-0.1,0.2-0.1,0.4,0,0.6
		c0,0.1,0.1,0.3,0.1,0.4c0,0.8,0,1.6,0,2.5c0,0.2,0,0.5-0.2,0.7c0,0,0,0.1,0,0.1c0,0.3,0,0.7,0,1c0.1,0.3,0.1,0.6,0.1,0.9
		c0,0.4,0,0.8,0,1.2c0,0.1,0.1,0.3,0.1,0.4c0,0.1,0,0.2,0,0.3c-0.1,0.2-0.1,0.4-0.1,0.6c0,0.2,0,0.3-0.2,0.5
		c-0.2,0.2-0.2,0.3-0.2,0.6c0,0.2,0,0.4,0.1,0.6c0.1,0.1,0.1,0.2,0.1,0.3c0,0.8,0.1,1.6-0.1,2.4c-0.1,0.4,0,0.8-0.1,1.2
		c-0.1,0.4,0,0.8,0,1.1c0,0.7,0,1.5,0,2.2c0,0.2,0,0.4-0.1,0.6c-0.2,0.4-0.3,0.9-0.3,1.3c0,0.2,0,0.4,0,0.7c0,0.1,0,0.2,0,0.3
		c0,0.2-0.1,0.4-0.1,0.6c0,0.4,0,0.7,0,1.1c0,0.2,0,0.4,0.2,0.5c0.2,0.1,0.2,0.3,0.2,0.5c0,0.5,0,1,0,1.5c0,0.5,0,1,0,1.6
		c0,0.1,0,0.2,0.1,0.2c0.2,0,0.4,0.3,0.7,0.3c0.1,0,0.1,0.1,0.1,0.2c0,0.1,0,0.3,0,0.4c0,0.2,0.1,0.4,0.1,0.6c0,0.1,0,0.1,0,0.2
		c0,0.4,0.4,0.8,0.8,0.8c0.1,0,0.1,0,0.2,0c0.2,0,0.4,0,0.7,0.1c0.3,0.1,0.6,0.1,0.8-0.2c0.2-0.2,0.4-0.4,0.6-0.6
		c0.2-0.3,0.6-0.3,0.9-0.5c0,0,0,0,0.1,0c0.4-0.1,0.6-0.3,0.9-0.6c0,0,0.1-0.1,0.1-0.2c0-0.3,0.1-0.6,0.1-0.9c0-0.5,0.4-0.9,0.7-1.2
		c0.3-0.3,0.5-0.5,0.5-0.9c0.1-0.2,0.1-0.4,0.2-0.6c0.1-0.1,0.1-0.2,0.1-0.3c0-0.3,0-0.6,0.1-0.9c0.1-0.2,0-0.4,0-0.6
		c0-0.1,0-0.3,0.1-0.3c0.3-0.2,0.4-0.5,0.4-0.8c0-0.1,0-0.2,0-0.3c0.1-0.2,0.1-0.4,0.1-0.6c0-0.4,0.2-0.7,0.3-1
		c0.1-0.3,0.4-0.3,0.7-0.3c0.3,0,0.5,0,0.8-0.1c0.2,0,0.3,0,0.4,0.1c0.2,0.2,0.4,0.3,0.6,0.3c0.2,0.1,0.5,0.1,0.7,0.3
		c0,0,0.1,0,0.1,0.1c0.1,0.1,0.2,0.1,0.3,0.2c0.3,0.3,0.7,0.3,1,0.6c0,0,0.1,0,0.2,0c0.3,0.1,0.7,0.2,1,0.4c0.1,0.1,0.2,0.2,0.4,0.2
		c0.1,0,0.1,0,0.2,0.1c0.2,0.2,0.5,0.3,0.7,0.4c0.1,0,0.1,0.1,0.2,0.1c0.2,0.1,0.3,0.2,0.5,0.2c0.3,0,0.6,0.1,0.7,0.4c0,0,0,0,0,0
		c0.3,0.2,0.5,0.5,0.8,0.7c0,0,0.1,0.1,0.1,0.1c0.5,0.1,0.9,0.4,1.3,0.4c0.2,0,0.4,0.1,0.6,0.3c0.2,0.2,0.5,0.4,0.8,0.6
		c0,0,0.1,0,0.1,0.1c0.3,0.1,0.7,0.2,1,0.3c0.3,0.1,0.5,0.2,0.8,0.3c0.2,0.2,0.5,0.3,0.8,0.4c0.2,0,0.4,0.1,0.6,0.3
		c0.1,0.1,0.2,0.2,0.3,0.3c0.1,0,0.1,0.1,0.2,0.1c0.2,0.1,0.5,0.1,0.7,0.3c0,0,0.1,0.1,0.2,0.1c0.2,0.1,0.5,0.1,0.7,0.2
		c0.2,0,0.3,0.1,0.5,0.2c0.3,0.2,0.7,0.3,0.9,0.6c0,0,0.1,0,0.1,0.1c0.1,0.1,0.3,0.2,0.4,0.3c0.2,0.1,0.4,0.2,0.6,0.3
		c0.3,0.1,0.6,0.1,0.8,0.4c0.2,0.2,0.5,0.3,0.7,0.5c0,0,0.1,0,0.2,0c0.1,0,0.3,0.1,0.4,0.2c0.1,0.1,0.3,0.2,0.4,0.3
		c0.1,0.1,0.3,0.1,0.4,0c0.2-0.1,0.3-0.2,0.5-0.2c0.1,0,0.2-0.1,0.3-0.1c0.1,0,0.3-0.1,0.4,0c0.3,0.1,0.7,0.1,1,0.1
		c0.5,0,0.8-0.4,0.6-0.9c-0.1-0.2,0-0.2,0.1-0.3c0.1-0.1,0.3-0.3,0.3-0.5c0-0.2,0.2-0.2,0.3-0.1c0.1,0.1,0.3,0.3,0.5,0.3
		c0,0,0.1,0,0.1,0.1c0.3,0.2,0.6,0.2,0.9,0.1c0.3-0.1,0.5-0.3,0.8-0.2c0.5,0.1,0.9-0.3,1.3-0.3c0,0,0,0,0,0c0.2-0.3,0.6-0.3,1-0.4
		c0.2-0.1,0.5,0,0.7,0.1c0.2,0.1,0.4,0,0.5-0.1c0.3-0.2,0.7-0.4,1.1-0.2c0,0,0.1,0,0.2,0c0.2,0,0.4,0.1,0.6,0.2
		c0.2,0.1,0.4,0,0.4-0.2c0,0,0-0.1,0-0.1c0-0.2,0-0.2,0.2-0.2c0.1,0,0.3,0,0.4,0c0.3,0,0.3-0.1,0.4-0.4c0-0.1,0-0.2,0-0.4
		c0-0.1,0-0.2,0.2-0.2c0.1,0,0.2,0,0.2-0.2c0-0.1,0.1-0.2,0.2-0.2c0.2,0,0.3-0.1,0.5-0.3c0.2-0.2,0.3-0.4,0.6-0.5
		c0.2-0.1,0.4-0.2,0.6-0.3c0.1,0,0.2-0.1,0.3-0.1c0.1,0,0.2-0.1,0.2-0.2c0-0.1,0.1-0.3,0.1-0.4c0-0.3,0.1-0.5-0.1-0.7
		c-0.1-0.1-0.2-0.3-0.1-0.5c0-0.2,0-0.3,0-0.5c0-0.2-0.1-0.4-0.3-0.4c-0.3-0.1-0.5-0.4-0.4-0.7c0-0.2,0.1-0.4-0.1-0.5
		c0-0.1-0.1-0.1-0.1-0.2c0.1,0,0.1,0.1,0.1,0.1c0.1,0.2,0.2,0.2,0.4,0.2c0.1,0,0.1-0.1,0.2-0.1c-0.1,0.5,0.4,0.4,0.5,0.7
		c0,0,0,0-0.1,0c0,0-0.1,0-0.2,0.1c0.2,0.1,0.3,0.1,0.3,0.1c0.1,0.1,0.2,0.1,0.3,0.2c0.1,0,0.1-0.1,0.2-0.1c0.1,0.1,0.2,0.2,0.2,0.3
		c-0.1,0-0.3,0.1-0.2,0.3c0.1,0,0.1,0,0.1,0c0.3-0.2,0.5,0,0.8,0c0.1,0,0.1,0,0.2,0.1c0.3,0.2,0.6,0.5,1,0.6c0.1,0,0.2,0.2,0.2,0.3
		c0,0.2,0.1,0.3,0.3,0.3c0.2,0,0.3,0.1,0.4,0.2c0,0,0.2,0.4,0.2,0.4c0.1,0,0.2-0.1,0.4-0.1c0.1,0.1,0.2,0.2,0.3,0.3
		c0.1,0.2,0.3,0.1,0.4,0.2c0.1,0,0.1,0.1,0.1,0.1c0,0,0.1,0.1,0.1,0c0.1-0.1,0.2,0,0.2,0c0.1,0.1,0.3,0.2,0.4,0.2
		c0.1-0.2,0.2,0,0.3,0c0.2,0.1,0.3,0.1,0.5,0.1c0,0.2,0.2,0.1,0.3,0.3c0.1,0,0.3,0.1,0.4,0c0,0,0,0,0,0.1c0,0,0,0-0.1,0.1
		c0.1,0,0.2,0,0.2,0c0.2,0.1,0.3,0.2,0.5,0.2c0,0,0.1,0,0.1,0c0.1,0.1,0.2,0.1,0.4,0.1c0.2,0,0.4,0,0.5,0.1c0.2,0.1,0.4,0.3,0.6,0.1
		c0.1-0.1,0.3-0.1,0.4,0c0.3,0.2,0.6,0.1,0.9,0.2c0.2,0.1,0.4,0,0.6,0c0.2,0,0.4,0.1,0.6,0.1c0.3,0,0.5,0.1,0.8,0.1
		c0.4,0.1,0.4,0.1,0.8,0c0.1,0,0.2,0,0.3,0c0.4,0.2,0.4,0.2,0.8,0c0,0.1,0,0.1,0.1,0.2c0.2,0,0.4,0.1,0.5,0c0.2-0.1,0.3,0,0.4-0.1
		c0.1-0.1,0.3,0.2,0.4-0.1c0.1,0.1,0.2,0.2,0.3,0.3c0.2,0,0.4,0,0.6-0.1c0.2-0.1,0.2-0.1,0.1-0.3c0,0,0.1-0.1,0.1-0.2
		c0.1,0.2,0.3,0.3,0.4,0.4c0.1,0.1,0.2,0.1,0.3,0.1c0.2-0.1,0.5-0.1,0.7-0.2c0.1,0,0.2,0,0.2-0.1c0-0.2,0.1-0.1,0.2-0.1
		c0.1,0,0.3,0.1,0.4,0c0,0,0.1,0,0.2,0c0.1,0,0.2,0.1,0.2,0c0.1-0.2,0.2,0,0.4,0c0,0,0-0.2,0.2-0.1c0.1,0,0.2-0.1,0.3-0.1
		c0.1,0,0.1-0.1,0.1-0.2c0,0,0,0-0.1-0.1c0,0,0.1,0,0.1,0c0,0,0,0,0,0.1c0.1,0,0.2,0.1,0.3-0.1c0,0,0,0-0.1-0.1c0,0,0.1,0,0.1,0
		c0,0,0,0,0,0.1c0.1,0,0.1,0,0.2,0c0-0.1-0.1-0.1-0.1-0.1c0.1,0,0.2,0,0.2,0c0,0.3,0.2,0.4,0.4,0.5c0,0,0,0,0.1,0
		c0-0.1-0.1-0.2-0.1-0.3c0,0.1,0.1,0.2,0.2,0.2c0,0,0,0,0,0c0,0,0,0,0,0c0.1,0,0.2,0,0.3,0c0,0.1,0,0.2,0,0.2
		c0.1,0.1,0.2,0.2,0.3,0.2c-0.1,0-0.1,0.1-0.2,0.1c-0.1-0.1-0.2-0.1-0.3-0.2c0,0.1,0,0.1,0,0.1c0.1,0.3,0.4,0.4,0.5,0.6
		c0,0,0,0,0.1,0c0-0.1,0-0.2,0-0.4c0.2,0.2,0.3,0.3,0.4,0.4c-0.1,0.1-0.1,0.1-0.2,0.2c0.1,0,0.1,0,0.1,0c0.1-0.1,0.2,0,0.2,0
		c0,0.2,0.4,0.4,0.3,0.6c0,0,0,0,0,0c0.2,0,0.1,0.2,0.3,0.3c0,0.1,0,0.2,0.1,0.1c0.1,0,0.1-0.1,0.2-0.2c-0.2,0-0.3,0-0.3-0.2
		c0,0,0-0.1,0-0.1c0,0,0,0,0,0c0,0.1,0.1,0.1,0.1,0.2c0.1,0,0.1-0.1,0.2-0.1c0,0.1,0.1,0.3,0.1,0.4c0,0.2,0.1,0.2,0.2,0.2
		c0,0,0,0.1,0,0.2c0,0,0,0.1,0,0.2c0.1-0.1,0.1-0.1,0.1-0.1c0.1,0.3,0.1,0.3,0.1,0.6c0-0.2-0.1-0.3-0.1-0.4
		c-0.1,0.1-0.1,0.2-0.2,0.2c0.1,0.1,0.2,0.1,0.2,0.2c0,0.1,0.1,0.1,0.2,0.1c0.1,0,0,0.1,0.1,0.2c0.1,0.1,0.1-0.1,0.2,0
		c0.1,0.1,0.1,0.1,0.1,0.2c0,0.1,0,0.1-0.1,0.1c0,0,0,0,0,0c0.3,0.2,0.6,0.5,0.8,0.8c-0.1,0.1-0.1,0.2-0.2,0.2
		c-0.1,0-0.1,0.1-0.1,0.1c0.6-0.1,0.9,0.3,1.2,0.6c0,0.1-0.1,0.2-0.1,0.2c0.1,0,0.2,0.1,0.3,0.1c0.1,0.1,0.1,0.3,0.1,0.4
		c0.1,0.2,0.3,0,0.4,0c0.3,0.2,0.6,0.1,0.9,0c0.2,0,0.3-0.2,0.4-0.3c0.1-0.1-0.1-0.2-0.1-0.3c0,0,0.1-0.1,0.1-0.1c0-0.1,0-0.3,0-0.4
		c0.2,0.1,0.4-0.1,0.5-0.1c0.1,0.2,0.2,0.4,0.3,0.6c0,0,0,0,0,0c0-0.1,0-0.4-0.1-0.5c0-0.1,0-0.2,0-0.2c0.1,0.2,0.2,0.5,0.3,0.7
		c0,0,0,0,0.1,0c0-0.2-0.1-0.4-0.1-0.6c0.1,0,0.1,0.1,0.1,0.1c-0.1-0.3-0.1-0.6-0.2-0.9c-0.1-0.6-0.3-1.2-0.6-1.6
		c-0.1-0.2-0.2-0.4-0.3-0.6c-0.1-0.3-0.2-0.6-0.3-1c-0.1-0.3-0.1-0.6-0.4-0.8c0,0,0,0,0-0.1c0-0.2-0.1-0.3-0.2-0.5
		c-0.1-0.2-0.3-0.4-0.4-0.6c-0.2-0.3-0.3-0.6-0.5-0.9c-0.1-0.2-0.1-0.4-0.3-0.6c-0.1-0.1-0.2-0.3-0.2-0.4c0,0,0.1,0,0.1,0.1
		c0.2,0,0.3,0,0.5-0.1c0.1,0,0-0.2,0.2-0.2c0.1,0,0.2-0.2,0.3-0.3c0,0,0-0.1,0-0.2c0,0,0.1,0,0.1-0.1c0-0.1-0.1-0.1-0.1-0.1
		c0.2-0.2,0.2-0.2,0.4-0.3c0.2,0,0.3-0.1,0.4-0.3c0-0.1,0.1-0.2,0.2-0.3c0.1-0.1,0.3-0.3,0.4-0.4c0.2-0.1,0.2-0.3,0.5-0.4
		c0.1,0,0.2-0.2,0.3-0.4c-0.1,0-0.2,0-0.3,0c0.3-0.1,0.1-0.4,0.2-0.6c0.4-0.1,0.3-0.5,0.5-0.7c0,0.1,0.1,0.1,0.1,0.2
		c0.1,0,0.1,0,0.2,0.1c-0.1,0.2-0.3,0.2-0.2,0.4c0.3,0.1,0.4-0.2,0.5-0.3c0.1-0.1,0.2,0.1,0.3,0c0.1-0.1,0.2-0.1,0.3-0.2
		c0.1-0.3,0.1-0.6,0.2-0.8c0.1-0.3,0.2-0.5,0.4-0.7c-0.1,0-0.1-0.1-0.2-0.1c0.1-0.1,0.1-0.1,0.1-0.1c0.1-0.1,0.2-0.2,0.4-0.4
		c0.1-0.1,0.2-0.3,0.2-0.4c0-0.1,0.1-0.2,0.2-0.4c0.2-0.3,0.3-0.7,0.4-1c0.2-0.3,0.3-0.6,0.5-0.9c0.2-0.3,0.3-0.6,0.5-0.9
		c0.1-0.2,0.1-0.3,0.2-0.5c0.1-0.4,0.2-0.9,0.4-1.3c0.2-0.3,0.3-0.7,0.3-1c0-0.2,0.2-0.3,0.2-0.5c0-0.2-0.1-0.3-0.1-0.5c0,0,0,0,0,0
		c0.1-0.3,0.2-0.5,0.2-0.8c0.2-0.2,0.1-0.4,0.1-0.6c0,0,0,0,0,0c0,0.1,0.1,0.2,0.1,0.3c0.1,0.3,0.2,0.6,0.2,0.9c0,0.4,0,0.7,0.2,1.1
		c0,0,0,0.1,0,0.1c0,0.3,0.3,0.6,0,0.9c0,0,0,0.1,0,0.1c0,0.3,0.2,0.6,0.1,1c0,0,0,0.1,0,0.1c0.1,0.1,0,0.4,0.1,0.4
		c0.2,0.2,0.1,0.5,0.4,0.6c0,0,0.1,0.1,0.1,0.1c0,0.2,0.1,0.4,0.1,0.5c0,0.2,0.2,0.4,0,0.6c0,0,0,0,0,0.1c0.2,0.2,0.2,0.4,0.2,0.7
		c0.1,0.2,0.1,0.4,0.2,0.7c0,0.1,0,0.2,0,0.2c-0.1,0.2-0.2,0.3-0.1,0.6c0.1,0.2,0.2,0.5,0.1,0.8c0,0.1,0,0.1,0,0.2
		c0.1,0.4,0.3,0.7,0.4,1.1c0,0.2,0.1,0.3,0.3,0.5c0.1,0.1,0.2,0.2,0.2,0.4c0.2,0.1,0,0.2,0.1,0.3c0.3,0.4,0.4,0.4,0.3,0.8
		c0,0.3,0.1,0.6,0.2,0.9c0.1,0.2,0.2,0.4,0.2,0.6c0,0.2,0.1,0.4,0.3,0.5c0.1,0.1,0.2,0.3,0.3,0.5c0,0.1,0.1,0.2,0.1,0.2
		c0.3,0,0.2,0.4,0.4,0.5c0,0,0,0.1,0,0.1c-0.2,0-0.1,0.1-0.1,0.2c0,0-0.1,0.1-0.2,0.1c0.1,0.1,0.1,0.1,0.2,0.2c0,0-0.1,0.1-0.1,0.1
		c0,0,0,0.1,0.1,0.1c0.1-0.1,0.1-0.1,0.1,0c0,0.1,0,0.1,0.1,0.2c0,0,0.1,0,0.1,0c0-0.3,0.1-0.1,0.2,0c0.1,0.1,0.1,0.1,0.2,0
		c0.1-0.1,0.2-0.2,0.3-0.1c0.1,0,0.2-0.1,0.3-0.1c0,0,0,0,0,0c0,0,0,0,0,0c0,0,0.1,0,0.1,0c0,0,0,0,0,0.1c0,0.1,0.1,0.2,0.1,0.2
		c0.1,0,0.2-0.1,0.3-0.1c0.1,0.1,0.3,0.1,0.4,0c0.2-0.1,0.1,0,0.1,0.1c0,0,0.1,0,0.2,0c0,0,0.1-0.1,0.1,0c0.1,0.1,0.1,0.1,0.2,0.2
		c-0.1,0-0.2,0-0.3,0c0,0-0.1,0-0.1,0c0,0,0,0.1,0,0.1c0.2-0.1,0.2,0.3,0.4,0.1c0,0,0.1,0.1,0.1,0.1c0,0.1,0.1,0.1,0.1,0
		c0-0.1,0.1-0.2,0.1-0.2c-0.2-0.1,0-0.2,0-0.3c-0.2-0.1-0.1-0.3-0.3-0.3c0,0,0-0.1,0-0.1c0-0.1,0-0.2,0-0.4c0.2,0.2,0.3,0.3,0.4,0.4
		c0.1,0,0.2,0.1,0.2,0c0.1,0,0-0.1,0-0.2c0-0.1,0-0.1,0-0.2c0,0,0,0,0.1,0c0,0,0,0,0,0c0,0.3,0.1,0.1,0.2,0c0.1-0.1,0.1,0,0.1,0
		c0.1,0.2,0,0.2-0.1,0.3c0.5,0.5,0.5,0.5,0.8,0.5c0-0.1-0.1-0.1-0.2-0.3c0,0,0,0-0.1,0c-0.1-0.1-0.2-0.1-0.3-0.2c0,0,0-0.1,0.2,0
		c-0.1-0.1-0.1-0.1-0.1-0.1c0.1,0,0.2,0.1,0.2,0.2c0.2,0,0.3,0,0.4,0.1c0.2,0.1,0.4,0.3,0.3,0.6c0,0.2,0.1,0.4,0.2,0.6
		c0.1,0.1,0.2,0,0.2,0c0.1-0.2,0.1-0.2,0.3-0.1c0.1,0,0.1,0,0.1,0c0.2-0.1,0.3-0.2,0.5-0.4c-0.2-0.2,0-0.1,0.1-0.1
		c0.1,0,0.1,0.1,0.1,0.2c0,0,0,0.1,0,0.1c0.1-0.1,0.2-0.3,0.3-0.4c0,0.1,0,0.1,0,0.1c0,0.1,0,0.3,0.2,0.1c0,0,0.1,0,0.1,0
		c0.1,0.1,0.1,0.1,0.2,0c0-0.1,0.1-0.2,0.1-0.3c0.1,0.1,0.3,0.2,0.4,0.3c0.1,0.1,0.1,0.1,0,0.2c0,0,0,0,0,0.1c0,0,0.1,0,0.1,0
		c0.1,0,0.1-0.1,0.2-0.2c0.1,0,0.1,0.3,0.3,0.1c0,0,0.1,0,0.1,0.1c0.1,0.3,0.3,0.4,0.4,0.7c0,0.1,0.1,0.1,0.2,0.1
		c0.1-0.1,0.2-0.1,0.2-0.2c0-0.2,0.2-0.2,0.4-0.4c0,0.1,0,0.1,0,0.2c0,0.1,0,0.2,0.1,0.1c0.1-0.1,0.2-0.1,0.3-0.1
		c0.1,0,0.2-0.1,0.3,0c0,0,0.1,0,0.2,0.1c0.1,0.1,0.2,0.1,0.2-0.1c0.1,0,0.1,0.1,0.2,0.1c0.1,0,0.1-0.1,0.1-0.2
		c0.2-0.1,0.5,0,0.6-0.2c0,0,0,0,0,0c0.1,0,0.2,0.1,0.2,0.1c0.2,0,0.1,0.2,0.2,0.2c0.1,0,0.1-0.2,0.2,0c0,0,0.1,0.1,0.1,0.1
		c0,0,0.1-0.1,0.1-0.1c0-0.1,0-0.2,0-0.2c0-0.1,0-0.2,0.1-0.1c0.1,0,0.1,0.1,0.1,0.2c0,0,0,0.1,0,0.1c0,0,0,0,0,0c0,0,0,0.1,0,0.1
		c0,0.1,0,0.2,0.2,0.1c0.2-0.2,0.2-0.1,0.2,0.1c0,0.2,0.1,0.1,0.2,0.1c0-0.1-0.1-0.3,0.1-0.3c0.2,0,0.1,0.2,0.1,0.2c0,0,0,0,0,0.1
		c0.1-0.2,0.2-0.4,0.3-0.6c0,0.4,0.2,0.5,0.5,0.4c0,0-0.1,0.1-0.1,0.1c0,0-0.1,0-0.1,0c0,0.1,0.1,0.1,0.1,0.2c0,0,0.1,0,0.1,0
		c-0.1-0.1,0.2-0.3,0-0.4c-0.1-0.1,0-0.1,0-0.2c0.1-0.1,0-0.3-0.1-0.4c0,0-0.1,0-0.1,0.1c0-0.1-0.1-0.1,0-0.2
		c0.1-0.1,0.1-0.3,0.3-0.6c0-0.1,0-0.2,0-0.2c0,0,0.1,0,0,0.2c0-0.1,0.1,0,0,0.1c0,0,0,0,0,0.1c0,0,0,0,0,0c0,0.2,0,0.3,0,0.3
		c0,0,0,0.1,0.1,0.1c0.2,0,0.2,0,0.2,0.2c0,0,0,0.1,0,0.1c0.1,0.1,0.1,0.1,0.1,0.2c0,0,0,0.1-0.1,0.1c0,0,0,0,0,0.1c0,0,0.1,0,0.1,0
		c0,0,0.1,0,0.1,0c0.1-0.1,0.1-0.1,0.2,0c0,0.1,0,0.1-0.1,0.1c0,0,0,0.1,0,0.1c0,0.1,0,0.1,0.1,0.2c0.1,0.2,0.1,0.2,0.3,0.1
		c0.2-0.1,0.3-0.1,0.5-0.1c0.1-0.2,0.1-0.3,0.4-0.3c0.1,0,0.1-0.1,0.2,0c0,0,0.1-0.1,0.2-0.1c0,0,0.1,0,0.1,0c0.1,0,0.2,0,0.3,0
		c0.1,0,0.1-0.1,0.1-0.2c0.1-0.1,0.1-0.2,0.2-0.3c0.2-0.2,0.3-0.5,0.4-0.7c0.1-0.3,0.1-0.6,0.2-0.8c0.1-0.2,0.2-0.4,0.2-0.7
		c0-0.1,0.2-0.1,0-0.3c-0.1-0.1,0.1-0.2,0.2-0.3c0,0,0-0.1,0-0.1c-0.1-0.1,0-0.1,0-0.2c0.1-0.1,0.1-0.3,0.1-0.4
		c0.2,0,0.1-0.2,0.2-0.4c0,0,0-0.1,0.1-0.1c0.2-0.1,0.1-0.4,0.3-0.5c0,0,0-0.2,0-0.3c0-0.1,0.1-0.1,0.2-0.1c-0.1-0.1,0-0.3,0.1-0.3
		c0.2-0.1,0.2-0.2,0.3-0.4c0.3-0.1,0.2-0.3,0.2-0.4c0,0,0,0,0.1-0.1c0-0.1,0-0.1-0.1-0.2c0,0,0-0.1,0-0.1c0,0,0,0,0.1-0.1
		c0,0,0,0,0,0.1c0,0,0,0.1,0,0.2c0-0.1,0,0,0,0c0,0,0,0,0,0c0,0.2,0.1,0.3,0.2,0.4c0,0,0,0.1,0,0.1c-0.2,0-0.1,0.2-0.1,0.3
		c0,0,0,0.1,0,0.1c-0.1,0.2-0.1,0.5,0,0.7c0,0,0,0.1,0,0.1c-0.2,0-0.2,0.3-0.3,0.4c-0.1,0.1-0.2,0.4-0.2,0.6c0,0,0.1,0.1,0.1,0.1
		c0.2,0.1,0.2,0.1,0.1,0.3c-0.1,0.2-0.1,0.2,0.1,0.2c0.1,0,0.2,0,0.2-0.2c0-0.3,0.2-0.5,0.2-0.8c0-0.1,0.1-0.3,0.1-0.4
		c0-0.1,0.2-0.3,0-0.5c0,0,0,0,0-0.1c0.2-0.2,0.2-0.6,0.3-0.8c0.1-0.3,0.2-0.6,0.3-0.9c0.2-0.5,0.3-1,0.6-1.4
		c0.2-0.4,0.3-0.8,0.5-1.2c0.2-0.3,0.3-0.7,0.4-1.1c0.1-0.2,0.2-0.4,0.3-0.7c0,0,0.1,0,0.1-0.1c0-0.3,0.2-0.6,0.4-0.9
		c0.3-0.7,0.6-1.5,0.9-2.2c0-0.1,0-0.1,0.1-0.2c0-0.1,0-0.2,0.1-0.2c0.1-0.2,0.2-0.4,0.2-0.5c0-0.2,0-0.4,0.1-0.5
		c0.1-0.2,0.2-0.4,0.2-0.5c0-0.2,0.3-0.3,0.2-0.5c0.1-0.1,0.1-0.2,0.1-0.2c0.1,0.2,0.1,0.5,0.2,0.7c0.1,0.3,0.2,0.5,0.1,0.8
		c0,0,0,0.1,0,0.1c0.2,0.2,0.1,0.5,0.2,0.7c0.1,0.2,0,0.3,0.1,0.5c0,0.1,0,0.3,0,0.5c0,0.3,0.1,0.5,0.2,0.7c0.1,0.2,0.1,0.5,0.3,0.7
		c0,0,0,0.1,0,0.1c0.1,0.2,0.2,0.4,0.4,0.5c0.2,0.1,0.2,0.3,0.4,0.4c0.1,0,0.2,0.1,0.3,0.2c0.1,0.1,0.3,0.1,0.3,0.3
		c0,0,0.1,0,0.1-0.1c-0.1-0.1-0.2-0.2-0.1-0.3c0,0,0.1,0,0.1-0.1c0,0.2,0,0.3,0,0.4c0,0,0.1,0,0.1,0.1c0.1,0.3,0.1,0.7,0.3,1
		c0,0.1,0.1,0.1,0,0.2c-0.1,0.1,0,0.2,0.1,0.3c0.3,0.2,0.3,0.3,0.3,0.5c0,0.1,0,0.3,0.1,0.3c0.2,0,0.2,0.2,0.3,0.3
		c0.1,0.2,0.1,0.4,0.1,0.6c0.1,0,0.2,0.1,0.2,0.2c0,0.2,0.1,0.3,0.1,0.4c0.1,0,0.2,0,0.3,0c-0.1,0.2,0.2,0.1,0.2,0.3
		c0,0.1,0.2,0.3,0.2,0.5c0,0,0.1,0.1,0.1,0.1c0.1,0,0.2,0.1,0.3,0.1c0,0,0,0,0,0.1c-0.1,0-0.1,0-0.2,0.1c0.2,0.1,0.2,0.2,0.4,0.3
		c0.4,0.3,0.8,0.4,1.2,0.7c0-0.2,0-0.3,0-0.4c0.1,0.2,0.3,0.2,0.4,0.4c0,0-0.1,0.1-0.1,0.1c-0.1,0-0.1,0.1,0,0.2c0,0,0,0,0,0.1
		c0,0.2,0,0.2,0.1,0.4c0.1,0.1,0.1,0.2,0.2,0.2c0,0.2,0.1,0.1,0.3,0.1l0,0c0,0,0,0,0,0c0,0,0.1,0,0,0c0,0,0,0,0,0l0,0
		c0.1,0.2,0.2,0.3,0.4,0.3c0.1,0,0.1,0.1,0.2,0c0,0.1,0.1,0.2,0.2,0.2c0,0.3,0.2,0.3,0.4,0.5c0.1,0.1,0.2,0.2,0.3,0.2
		c0,0,0.1,0,0.2,0c0.1,0.3,0.4,0.2,0.5,0.5c0,0.1,0.2,0.1,0.3,0.2c0.1,0,0.1-0.1,0.2,0c0,0,0.2,0,0.3,0c0.1,0.2,0.1,0.2,0.4,0.4
		c0,0.2,0.2,0.1,0.2,0.1c0.1,0,0.1-0.1,0-0.2c0,0-0.1,0-0.2-0.1c0.1-0.1,0.2-0.2,0.2-0.3c0.2,0.1,0.3,0.2,0.3,0.3
		c0,0.1,0.3,0.1,0.2,0.2c0.1,0,0.2,0,0.3,0c0.1,0,0.1,0,0.1,0c0.1,0,0.3,0.2,0.4,0c0.2,0.1,0.5,0.1,0.5,0.4c0,0.1,0.1,0,0.2,0
		c0,0.1,0,0.3,0,0.4c0.2-0.1,0.4-0.1,0.5-0.3c0.2,0.1,0.3,0.2,0.3,0.3c0,0.2,0.1,0.3,0.2,0.3c0.2,0,0.3,0.1,0.5,0.2
		c0.3,0,0.5,0.2,0.8,0.2c0.1,0.2,0.4,0,0.4,0.2c0,0,0.1,0,0.1,0c0.1-0.1,0.2,0,0.3,0c0.2,0.1,0.4,0.1,0.5,0.2c0,0,0-0.1,0.1-0.1
		c0,0,0,0,0.1,0c0.1,0.1,0.1,0.1,0.1,0.1c0.2-0.2,0.3,0.2,0.4,0.2c0.1-0.1,0.2-0.1,0.2-0.2c0.1,0.2,0.2,0.2,0.4,0.2c0,0,0.1,0,0.1,0
		c0.1,0.2,0.1-0.1,0.2,0c0.1,0,0.2,0.1,0.3,0.1c0.1,0,0.3,0,0.4-0.1c0,0.1,0.1,0.1,0.1,0.1c0.1-0.1,0.2,0,0.3,0.1
		c0.1,0.1,0.2,0.1,0.3-0.1c0.1,0.1,0.1,0.1,0.2,0.2c0.1-0.1,0.1-0.1,0.1-0.1c0.2,0,0.4,0.1,0.5,0.1c0.1,0,0.2-0.1,0.3,0
		c0.1,0.1,0.2,0,0.3,0c0.1,0,0.2,0.1,0.3,0c0.1,0,0.2,0.1,0.3,0c0.1-0.1,0.2,0,0.3,0.1c0,0,0.1,0,0.1-0.1c0.1,0,0.3-0.1,0.4-0.1
		c0.1,0.1,0.3,0,0.3,0.1c0.1,0.1,0.2-0.1,0.3,0c0.3,0,0.6,0,0.9,0c0.2,0,0.4-0.2,0.6,0c0.1-0.1,0.3-0.1,0.4-0.1
		c0.4,0,0.7-0.1,1.1-0.1c0,0,0.1,0,0.1,0c0.3-0.1,0.7-0.2,1-0.2c0.4,0,0.7-0.2,1-0.2c0.2,0,0.5-0.1,0.7-0.2c0.2-0.1,0.5-0.1,0.7-0.2
		c0.2-0.1,0.4,0,0.6-0.1c0.2-0.1,0.4,0,0.6-0.1c0.2,0,0.5,0,0.7,0c0.1,0,0.3-0.1,0.4-0.2c0.5-0.2,1-0.4,1.4-0.7
		c0.2-0.1,0.4-0.4,0.7-0.5c0.2-0.1,0.4-0.4,0.6-0.5c0.1-0.1,0.1-0.1,0.2-0.1c0.1-0.1,0.1-0.2,0.1-0.2c0.2,0,0.3-0.1,0.4-0.2
		c0.1-0.1,0.3-0.2,0.5-0.3c0.2-0.1,0.3-0.2,0.4-0.3c0.4-0.3,0.9-0.6,1.2-1c0.1-0.1,0.3-0.1,0.3-0.3c0.3,0,0.5-0.2,0.6-0.3
		c0.2-0.2,0.5-0.3,0.7-0.6c0.1-0.1,0.3-0.2,0.4-0.3c0.1-0.1,0.2-0.1,0.2-0.2c0.1-0.2,0.2-0.3,0.3-0.4c0.1-0.1,0.2-0.2,0.3-0.3
		c0.1-0.2,0.2-0.4,0.3-0.6c0.1-0.1,0.2-0.3,0.3-0.4c0.1-0.1,0-0.2,0.1-0.3c0.1-0.3,0.3-0.5,0.3-0.8c0-0.1,0.1-0.2,0.1-0.2
		c0.2,0,0.1-0.3,0.2-0.4c0-0.2,0.1-0.3,0.1-0.5c0-0.2,0.1-0.4,0.3-0.5c0,0,0-0.1,0-0.1c0.1-0.2,0.2-0.4,0.2-0.7
		C176.9,49.6,177,49.4,177,49.1z M152.8,41.5C152.8,41.5,152.7,41.4,152.8,41.5c0-0.1,0-0.1,0-0.2c0,0,0,0,0.1,0.1
		C152.9,41.5,152.8,41.5,152.8,41.5z M172.6,25.6c-0.1-0.1-0.1-0.1-0.1-0.1c0,0-0.1-0.1-0.1-0.2C172.5,25.4,172.6,25.4,172.6,25.6z
		 M172.5,25c-0.1,0.1-0.1,0.2-0.1,0.3c0-0.1-0.1-0.1-0.2-0.2C172.3,25,172.4,25,172.5,25z M172.3,28.4c-0.1,0-0.1,0-0.2,0
		c0-0.1,0-0.2,0-0.3c0,0,0,0,0,0C172.2,28.2,172.3,28.3,172.3,28.4z M172.1,28c-0.1,0-0.1-0.1-0.1-0.1C172.1,27.9,172.1,28,172.1,28
		z M172,27.8C172,27.9,172,27.9,172,27.8C172,27.9,172,27.9,172,27.8C172,27.8,172,27.8,172,27.8z M167.4,36.6c0,0,0,0,0.1,0.1
		c-0.1,0-0.1,0.1-0.1,0.1C167.3,36.7,167.3,36.6,167.4,36.6C167.3,36.6,167.3,36.6,167.4,36.6z M164.4,38.8c0.1,0,0.2,0,0.3,0.1
		c-0.1,0.3-0.3,0.1-0.5,0.2C164.1,38.8,164.4,38.9,164.4,38.8z M164.1,38.9C164.1,38.9,164.1,38.9,164.1,38.9
		C164.1,38.9,164.1,38.9,164.1,38.9C164.1,38.9,164.1,38.9,164.1,38.9C164.1,38.9,164.1,38.9,164.1,38.9z M163.3,37.8
		c0,0.1-0.1,0.2-0.1,0.4c-0.1-0.1-0.1-0.1-0.2-0.2C163.1,37.9,163.1,37.8,163.3,37.8z M153.1,41.6c0.1-0.1,0.1-0.1,0.1-0.1
		c0,0.1,0,0.1,0,0.1c0,0,0.1,0.1,0,0.1C153.3,41.6,153.2,41.6,153.1,41.6z M151,29.4c0.2-0.3,0.4-0.6,0.7-0.9
		c0.1-0.2,0.2-0.4,0.4-0.5c0.2-0.1,0.2-0.4,0.5-0.4c0.4-0.4,0.9-0.6,1.4-0.9c0.1,0,0.2-0.1,0.3-0.1c0.1,0,0.2-0.1,0.3-0.1
		c0,0-0.1-0.1-0.1-0.1c0.2,0,0.4,0,0.5-0.2c0,0,0.2,0,0.2,0c0,0,0.1,0,0.1-0.1c0-0.2,0.2-0.1,0.3-0.1c0.1-0.1,0.3-0.1,0.4-0.2
		c0.2,0,0.3,0,0.5-0.1c0.1,0,0.2-0.1,0.3-0.2c0.1,0,0.2,0,0.4,0c0.1,0,0.3,0,0.4,0c0.1,0,0.1-0.1,0.2-0.1c0,0,0,0.1,0.1,0.1
		c0.1,0,0.2,0,0.3-0.1c0.1-0.1,0.3,0,0.4-0.1c0.1-0.1,0.3-0.1,0.4-0.1c0.1-0.1,0.3,0,0.5,0.1c0.1,0.1,0.2,0.2,0.3,0.3
		c0.1,0.1,0.2,0.1,0.3,0.2c0.1,0.1,0.3,0.1,0.3,0.3c0,0,0.1,0,0.1,0c0.1,0.1,0.3,0.2,0.4,0.3c0.1,0.1,0.2,0.2,0.3,0.3
		c0,0.1,0.1,0.1,0.2,0.2c0.2,0.1,0.3,0.3,0.4,0.5c0.1,0.3,0.1,0.3-0.2,0.4c-0.1,0-0.2,0.1-0.1,0.2c0,0.2-0.1,0.1-0.2,0.2
		c-0.2,0.1-0.5,0.2-0.8,0.2c-0.1,0-0.1,0.1-0.2,0.1c-0.2,0.1-0.4,0.2-0.7,0.2c-0.4,0-0.8,0.1-1.1,0.3c-0.1,0-0.1,0.1-0.2,0.1
		c-0.1,0-0.2,0.1-0.4,0.1c-0.1,0-0.3,0-0.4,0.1c-0.3,0.1-0.5,0.1-0.8,0.1c-0.4,0-0.8,0-1.2,0.1c-0.1,0-0.2,0.1-0.4,0.1
		c-0.1,0-0.1,0.1,0,0.2c0,0,0,0,0,0c0,0,0,0,0,0c0,0,0,0,0,0c0,0,0,0,0,0c0,0,0,0,0,0c0,0,0,0,0,0c-0.1,0-0.2,0.1-0.3,0
		c-0.2-0.2-0.4-0.1-0.6,0c-0.1,0-0.1,0-0.2,0.1c-0.1,0.1-0.2,0.1-0.2,0.2c0,0.1-0.1,0.2-0.2,0.2c-0.2,0-0.2,0.1-0.2,0.2
		c-0.2,0-0.4,0-0.6-0.1c-0.1,0-0.2,0-0.2,0c-0.4-0.1-0.7,0.1-1.1,0.1c-0.3,0-0.6-0.1-0.9-0.1c0,0-0.1-0.1-0.2-0.1
		C150.4,30,150.5,29.6,151,29.4z M150.1,30.5C150.1,30.5,150.1,30.5,150.1,30.5C150.1,30.5,150,30.5,150.1,30.5
		C150.1,30.5,150.1,30.5,150.1,30.5z M148.6,43.4C148.6,43.4,148.6,43.4,148.6,43.4C148.6,43.4,148.6,43.5,148.6,43.4
		C148.6,43.5,148.5,43.4,148.6,43.4C148.6,43.4,148.6,43.4,148.6,43.4z M45.6,21.3c-0.2,0.2-0.4,0.4-0.6,0.5
		c-0.2,0.1-0.3,0.2-0.5,0.4c-0.2,0.2-0.4,0.3-0.6,0.4c-0.2,0.1-0.4,0.3-0.6,0.4c-0.4,0.3-1.1,0.7-1.5,1c-0.1,0.1-0.2,0.1-0.4,0.2
		c-0.3,0.2-0.5,0.3-0.6,0.7c-0.1,0.3-0.3,0.5-0.6,0.6c-0.4,0.2-0.8,0.3-1,0.6c-0.1,0.1-0.3,0.2-0.5,0.3c-0.1,0-0.1,0.1-0.2,0.1
		c-0.2,0.2-0.4,0.3-0.6,0.5c-0.2,0.1-0.3,0.2-0.4,0.3c-0.2,0.2-0.4,0.4-0.7,0.6c-0.2,0.1-0.4,0.3-0.6,0.5c-0.1,0.2-0.3,0.3-0.5,0.3
		c-0.2,0-0.3,0.2-0.5,0.3c-0.1,0.1-0.3,0.2-0.4,0.4c-0.2,0.2-0.5,0.4-0.7,0.5c-0.1,0-0.2,0-0.2,0.1c-0.3,0-0.3,0-0.3-0.2
		c0-0.1,0.1-0.3,0.1-0.4c0.1-0.5,0.2-0.9,0.2-1.4c0,0,0-0.1,0-0.1c0.2-0.3,0.1-0.7,0.1-1c0-0.1,0-0.3,0.1-0.4c0,0,0-0.1,0-0.1
		c0.1-0.4,0.1-0.7,0.2-1.1c0.1-0.4,0-0.8,0.2-1.2c0,0,0-0.1,0-0.2c0-0.4,0.1-0.7,0.1-1.1c0-0.2,0.6-0.8,0.9-0.9c0,0,0.1,0,0.1,0
		c0.5,0,0.9-0.1,1.3-0.3c0.3-0.1,0.5-0.2,0.9-0.1c0.3,0.1,0.6,0.1,0.9,0c0.3-0.1,0.5-0.1,0.8-0.1c0.3,0,0.6,0.1,0.8-0.1
		c0.1,0,0.1,0,0.2,0c0.6,0,1.6-0.1,2.1,0c0.1,0,0.2,0,0.4,0.1c0.2,0.1,0.4,0.1,0.6,0c0.2-0.2,0.4-0.2,0.7-0.2c0.3,0,0.6,0,0.9,0
		c0.1,0,0.2,0,0.2,0C45.7,21,45.7,21.1,45.6,21.3z M62.8,50.2c-0.2-0.2-0.4-0.4-0.6-0.6c-0.1,0-0.1-0.1-0.2-0.1
		c-0.2,0-0.3-0.2-0.5-0.3c-0.2-0.2-0.4-0.4-0.7-0.5c-0.3,0-0.4-0.2-0.6-0.3c-0.3-0.3-0.6-0.6-1-0.7c-0.3-0.2-0.6-0.3-0.8-0.6
		c-0.1-0.1-0.2-0.1-0.2-0.1c-0.2-0.1-0.4-0.3-0.7-0.4c-0.4-0.2-0.7-0.6-1.3-0.7c0,0-0.1,0-0.1-0.1c-0.2-0.1-0.4-0.3-0.6-0.4
		c-0.2-0.1-0.3-0.2-0.5-0.3c-0.1,0-0.2-0.1-0.3-0.1c-0.1-0.1-0.2-0.2-0.4-0.2c-0.2-0.1-0.4-0.2-0.6-0.3c-0.3-0.1-0.5-0.3-0.8-0.4
		c-0.2-0.1-0.4-0.2-0.5-0.3c-0.2-0.2-0.4-0.3-0.6-0.3c-0.1,0-0.1,0-0.1-0.1c-0.4-0.2-0.7-0.5-1.1-0.6c-0.4-0.2-0.7-0.4-1.1-0.5
		c-0.1-0.1-0.2-0.1-0.4-0.2c-0.3-0.2-0.6-0.3-0.8-0.5c-0.4-0.2-0.7-0.4-1-0.7c-0.1,0-0.1-0.1-0.1-0.2C47,40.3,47,40.1,47.3,40
		c0.2-0.1,0.4-0.2,0.5-0.3c0.4-0.2,0.7-0.4,1.1-0.6c0.3-0.2,0.5-0.3,0.9-0.3c0.5,0,1,0,1.5,0c0.2,0,0.3,0,0.4-0.2
		c0.2-0.2,0.3-0.2,0.6-0.1c0,0,0.1,0,0.1,0.1c0.2,0.1,0.4,0.1,0.6-0.1c0.1-0.1,0.2-0.1,0.3-0.1c0.3,0,0.5,0,0.8-0.1
		c0.3-0.1,0.6-0.2,0.8-0.4c0,0,0.1-0.1,0.2-0.1c0.2-0.1,0.4-0.1,0.6-0.2c0.4-0.1,0.7-0.4,1.1-0.6c0.1,0,0.2-0.1,0.3-0.1
		c0.1-0.1,0.2-0.1,0.3-0.2c0.3-0.2,0.5-0.5,0.8-0.7c0.1-0.1,0.2-0.2,0.3-0.2c0.2,0,0.3-0.1,0.4-0.2c0.3-0.3,0.6-0.6,1-0.8
		c0.3-0.2,0.6-0.4,0.9-0.6c0.6-0.4,1.2-0.9,1.6-1.5c0,0,0,0,0,0c-0.2,0.3-0.3,0.6-0.5,0.9c-0.2,0.3-0.2,0.6-0.4,0.9
		c-0.1,0.2-0.2,0.4-0.3,0.7c-0.1,0.3-0.2,0.5-0.3,0.7c0,0.2,0,0.4-0.2,0.6c0,0,0,0.1,0,0.2c0,0.2-0.1,0.4-0.1,0.6
		c-0.1,0.2,0,0.3,0.1,0.5c-0.1,0.1-0.2,0.2-0.2,0.3c-0.1,0.3-0.2,0.6-0.2,1c0,0.4,0,0.7,0.1,1.1c0.1,0.2,0.1,0.4,0,0.6
		c-0.1,0.2,0.1,0.4,0,0.6c-0.1,0.3-0.1,0.6-0.1,0.9c0,0.3,0.1,0.5,0.1,0.7c0,0.3,0,0.5,0,0.8c0,0,0,0.1,0,0.1
		c0.3,0.5,0.2,0.5,0.2,0.9c0,0.1,0.1,0.2,0.1,0.3c0,0.1,0,0.2,0.1,0.2c0.2,0.1-0.1,0.2,0,0.2c0,0,0.1,0,0.1,0.1c0,0,0.1,0.1,0.1,0.2
		c-0.1,0-0.1,0.1-0.2,0.1c0.1,0.1,0.1,0.3,0,0.4c0.1,0.1,0.1,0.2,0.1,0.3c0,0.1,0,0.2,0.1,0.3c0,0.1,0.1,0.2,0.2,0.3
		c0.1,0.1,0.1,0.3,0.1,0.4c0.1,0.2,0.1,0.6,0.4,0.6c0,0,0,0.1,0,0.1c0,0.1,0.1,0.3,0.1,0.4c0.1,0,0.1,0,0.2,0
		c0.1,0.2,0.2,0.4,0.3,0.5c0.1,0.1,0.3,0.2,0.2,0.4c0,0.2,0.3,0.2,0.2,0.4c0,0,0.1,0,0.1,0.1c0,0.2,0.1,0.3,0.3,0.3
		c0.1,0.1,0.3,0.2,0.3,0.3c0,0-0.1,0-0.1,0C63.1,50.4,62.9,50.3,62.8,50.2z M91.5,61.7C91.5,61.6,91.5,61.6,91.5,61.7
		c0-0.1,0-0.1,0-0.1C91.5,61.6,91.5,61.6,91.5,61.7C91.5,61.6,91.5,61.6,91.5,61.7C91.5,61.7,91.5,61.7,91.5,61.7z M98.8,66.1
		c0,0,0-0.1-0.1-0.1c0,0,0,0,0.1,0C98.8,66,98.8,66,98.8,66.1z M98.7,65.6c0,0.1,0.1,0.1,0.1,0.2c0,0,0,0,0,0
		C98.7,65.8,98.7,65.7,98.7,65.6C98.7,65.6,98.7,65.6,98.7,65.6z M98.2,66.1C98.2,66.1,98.3,66.1,98.2,66.1
		C98.3,66.2,98.3,66.2,98.2,66.1C98.2,66.2,98.2,66.2,98.2,66.1C98.2,66.1,98.2,66.1,98.2,66.1z M82.5,30.6c0.1-0.2,0.3-0.3,0.5-0.2
		c0.2,0.1,0.4,0.1,0.6,0.1c0.2,0,0.4-0.1,0.5,0.2c0,0,0,0,0,0c0.1,0,0.3-0.1,0.4,0.2c0.2,0,0.3,0.1,0.4,0.2c0.4-0.1,0.6,0.2,0.9,0.3
		c0.2,0,0.5,0.1,0.7,0.2c0.3,0.1,0.5,0.2,0.8,0.3c0.1,0,0.1,0.1,0.2,0.1c0.1-0.1,0.2,0.2,0.3,0c0.1,0.1,0.2,0.2,0.3,0.2
		c0.1,0.1,0.2,0.1,0.2,0.2c0,0,0.1,0.1,0.2,0.1c0.2,0.2,0.4,0.3,0.5,0.5c0.2,0.2,0.2,0.5,0.2,0.7c0.1,0.1,0.2,0.3,0.3,0.4
		c0.1,0.1,0.3,0.1,0.3,0.3c0,0,0.1,0.1,0.2,0.1c0.3,0.1,0.5,0.4,0.6,0.6c0.1,0.2,0.3,0.4,0.3,0.7c0,0.2,0.1,0.4,0.2,0.5
		c0.2,0.3,0.4,0.5,0.6,0.7c0,0.2,0,0.5,0.2,0.7c0.2,0.2,0.2,0.4,0.3,0.6c0.1,0.2,0.1,0.4,0.3,0.5c0.2,0.1,0,0.4,0.2,0.5
		c0,0.3,0.2,0.6,0.2,0.9c0,0.1,0,0.1,0,0.2c0,0.2,0,0.3,0.1,0.5c0,0,0,0,0,0c0,0.2,0,0.4,0,0.6c0.1,0.2,0.1,0.4,0,0.6
		c-0.1,0.2,0,0.5,0,0.8c0,0.1,0.1,0.2,0,0.2c-0.1,0.4-0.1,0.8-0.3,1.2c-0.1,0.2,0,0.5,0,0.7c0,0.1,0.2,0.2,0.3,0.3
		c0,0-0.1,0.1-0.1,0.2c0.1,0.4-0.2,0.7-0.4,1c-0.1,0.1-0.1,0.2-0.1,0.3c-0.2,0.4-0.2,0.4-0.5,0.6c0.1,0.2,0.3,0.3,0.2,0.5
		C92.1,47.9,92,48,92,48c0,0,0,0.2,0,0.2c0.1,0,0.2,0.1,0.1,0.2c-0.1,0.1-0.2,0.2-0.3,0.3c-0.1,0-0.3,0-0.4,0.2
		c-0.1-0.2-0.2-0.4-0.3-0.6c-0.1-0.3-0.3-0.7-0.4-1c-0.1-0.3-0.3-0.6-0.5-0.8c-0.1-0.1-0.2-0.3-0.2-0.5c-0.1-0.2-0.2-0.4-0.3-0.5
		c-0.1-0.1-0.1-0.2-0.1-0.4c-0.1-0.3-0.3-0.6-0.5-0.8c-0.2-0.3-0.2-0.6-0.4-0.9c0,0,0,0,0,0c0-0.2-0.1-0.3-0.2-0.5
		c-0.1-0.3-0.3-0.5-0.4-0.8c-0.1-0.3-0.4-0.4-0.4-0.8c-0.3-0.4-0.5-0.9-0.7-1.4c-0.3-0.7-0.6-1.4-0.9-2c-0.2-0.6-0.6-1.1-0.8-1.7
		c0-0.1-0.1-0.3-0.2-0.4c-0.1-0.1-0.1-0.3-0.2-0.4c-0.1-0.1-0.1-0.3-0.1-0.4c-0.1-0.2-0.2-0.4-0.3-0.5c-0.1-0.2-0.1-0.3-0.2-0.5
		c-0.2-0.3-0.3-0.6-0.4-0.9c-0.1-0.2-0.2-0.4-0.3-0.6c-0.1-0.2-0.2-0.4-0.3-0.6C82.9,31.5,82.7,31.1,82.5,30.6
		C82.5,30.7,82.5,30.6,82.5,30.6z M83.6,48.8c-0.1-0.1-0.1-0.2-0.2-0.3C83.7,48.6,83.7,48.6,83.6,48.8z M82.7,48.1
		C82.6,48.1,82.6,48.1,82.7,48.1c0,0-0.1-0.1-0.1-0.1c0,0,0,0,0,0C82.6,48,82.6,48,82.7,48.1z M79.1,40C79,40,79,40,79.1,40
		c-0.1-0.1-0.1-0.2-0.1-0.3C79,39.8,79.1,39.9,79.1,40z M79,39.1C79,39.1,79,39.1,79,39.1C79,39.1,79,39.1,79,39.1
		C79,39.1,79,39.1,79,39.1z M79.1,38.3c0-0.1-0.1-0.1-0.1-0.2c0,0,0,0,0.1,0C79,38.1,79.1,38.2,79.1,38.3
		C79.1,38.3,79.1,38.3,79.1,38.3z M77.8,37.1c0.2,0,0.2,0.1,0.3,0.3c0,0.1,0.1,0.3,0.1,0.4c0,0,0.1,0.1,0.1,0.1
		c0.3,0,0.2,0.3,0.3,0.4c0,0.1,0,0.1,0.1,0.2c0.2,0.2,0.2,0.2,0.1,0.6C78.5,38.3,78.1,37.7,77.8,37.1z M78.6,38.7
		C78.5,38.7,78.5,38.7,78.6,38.7C78.5,38.7,78.5,38.7,78.6,38.7C78.5,38.7,78.5,38.7,78.6,38.7z M78.2,36C78.2,36,78.2,36,78.2,36
		c0.1,0.2,0,0.2-0.1,0.3c0-0.1,0-0.1,0-0.1C78.1,36.1,78.1,36.1,78.2,36z M78.5,36.6c0.1,0,0.2,0.1,0.2,0.2
		C78.6,36.9,78.5,36.8,78.5,36.6z M78.7,37.4c0,0.1-0.1,0.1-0.1,0.1c0,0-0.1-0.1-0.1-0.1c0,0,0-0.1,0-0.1
		C78.5,37.4,78.6,37.4,78.7,37.4z M78.3,36.8c-0.1,0-0.1,0.1-0.3,0.1c0.1-0.1,0.1-0.2,0.2-0.3C78.2,36.7,78.3,36.7,78.3,36.8z
		 M83,50.7c-0.5,0-0.9-0.1-1.4-0.3c-0.5-0.1-0.9-0.3-1.3-0.5c-0.4-0.2-0.8-0.4-1.3-0.6c-0.3-0.1-0.5-0.3-0.7-0.5
		c-0.2-0.1-0.3-0.4-0.5-0.5c-0.2-0.1-0.4-0.3-0.6-0.5c-0.3-0.2-0.5-0.4-0.7-0.6c-0.4-0.4-0.7-0.8-1-1.3c-0.1-0.2-0.2-0.4-0.2-0.6
		c0-0.3,0-0.5-0.1-0.8c-0.1-0.3,0-0.6-0.1-0.9c-0.1-0.2,0-0.4,0.1-0.6c0.2-0.5,0.3-0.9,0.4-1.4c0.2-0.8,0.5-1.5,0.7-2.3
		c0-0.1,0.2-0.3,0.1-0.3c-0.2-0.2,0.2-0.1,0.1-0.2c0-0.1,0-0.2,0.1-0.2c0.1-0.1,0-0.3,0.2-0.5c0.1-0.1,0.1-0.3,0.2-0.4
		c0.2-0.2,0.3-0.5,0.4-0.8c0,0,0-0.1,0.1-0.1c0,0,0,0,0,0c0.1,0.2,0.2,0.4,0.3,0.6c0.1,0.2,0,0.5,0.3,0.7c0,0,0,0,0,0.1
		c0,0.2,0.1,0.2,0.2,0.3c-0.1,0-0.1,0.1-0.1,0.2c0.2,0.2,0.4,0.4,0.6,0.7c-0.3,0.4,0,0.6,0.1,0.9c0,0,0.1-0.1,0.1-0.1
		c0,0,0,0.1,0,0.1c0,0.1-0.1,0.1-0.1,0.2c0.1,0.1,0,0.2,0.1,0.3c0.1,0.1,0.1,0.1,0.1,0.2c0,0.1,0.1,0.2,0.1,0.3c0,0,0,0,0.1,0.1
		c0,0.2,0,0.3-0.1,0.5c0.2,0.1,0.2,0.3,0.2,0.5c0,0.2,0,0.4,0.1,0.6c0.1,0.2,0.2,0.4,0.2,0.6c0,0.2,0.2,0.3,0.3,0.5
		c0.1,0.1,0.2,0.2,0.1,0.4c0,0.1,0.1,0.2,0.1,0.3c0.1,0.1,0.3,0.3,0.5,0.4c0,0.2,0,0.4,0.2,0.6c0,0,0,0,0.1-0.1
		c0.2,0.2,0.3,0.5,0.4,0.8c0-0.1,0-0.2,0-0.2c0.1,0.1,0.1,0.2,0.2,0.3c0,0-0.1,0-0.2,0c0.1,0.1,0.1,0.1,0.2,0.2c0,0.1,0,0.1,0,0.2
		c0.1-0.1,0.1-0.1,0.2-0.2c0,0.1,0,0.2,0,0.3c0.1,0.2,0.1,0.4,0.3,0.5c0.2,0.1,0.1,0.4,0.3,0.6c0,0,0,0,0.1,0.1c0.1,0,0.1,0,0.2-0.1
		c0,0.1-0.1,0.2-0.1,0.3c0.2,0,0.3,0.2,0.4,0.3c0.2,0.1,0.3,0.3,0.3,0.5c0.1,0.3,0.2,0.6,0.5,0.8c0.1,0.2,0.2,0.4,0.2,0.6
		c0,0,0,0,0,0.1C83.8,50.8,83.4,50.8,83,50.7z M88.3,60.1C88.3,60.1,88.3,60,88.3,60.1C88.3,60,88.3,60,88.3,60.1
		C88.3,60,88.3,60,88.3,60.1C88.3,60.1,88.3,60.1,88.3,60.1z M88.3,59.7C88.3,59.8,88.3,59.8,88.3,59.7
		C88.3,59.8,88.3,59.8,88.3,59.7C88.3,59.7,88.3,59.7,88.3,59.7C88.3,59.7,88.3,59.7,88.3,59.7z M88.3,59.7
		C88.4,59.7,88.4,59.7,88.3,59.7C88.4,59.7,88.4,59.7,88.3,59.7C88.3,59.7,88.3,59.7,88.3,59.7z M88.4,59.7
		C88.4,59.7,88.4,59.7,88.4,59.7C88.4,59.7,88.4,59.7,88.4,59.7C88.4,59.7,88.4,59.7,88.4,59.7z M88.6,60.8
		C88.6,60.8,88.5,60.8,88.6,60.8C88.5,60.7,88.6,60.7,88.6,60.8C88.6,60.7,88.6,60.8,88.6,60.8C88.6,60.8,88.6,60.8,88.6,60.8z
		 M88.5,60.1C88.5,60.1,88.5,60,88.5,60.1C88.5,60,88.6,60,88.5,60.1C88.6,60,88.6,60,88.5,60.1C88.6,60,88.6,60.1,88.5,60.1z
		 M90.6,60.5c0.1,0,0.1,0,0.2-0.1c0,0,0,0,0,0c0,0.1,0,0.1,0,0.2C90.7,60.6,90.7,60.6,90.6,60.5z M92.5,62.2c0-0.1-0.1-0.1-0.1-0.2
		c0,0,0,0,0,0C92.5,62,92.5,62.1,92.5,62.2C92.5,62.1,92.5,62.2,92.5,62.2z M92.6,62.4c-0.1-0.1,0-0.2,0.1-0.2c0,0.1,0,0.2,0.1,0.3
		C92.7,62.4,92.6,62.4,92.6,62.4z M92.8,62.6C92.8,62.6,92.8,62.6,92.8,62.6C92.8,62.6,92.8,62.6,92.8,62.6
		C92.8,62.6,92.8,62.6,92.8,62.6z M107.9,16C107.9,16,107.9,15.9,107.9,16c0-0.1,0-0.1,0-0.1c0,0,0.1,0,0.1,0.1
		C108,15.9,108,15.9,107.9,16z M111.3,60.2C111.3,60.2,111.3,60.2,111.3,60.2C111.2,60.1,111.3,60.1,111.3,60.2
		c-0.1-0.1-0.1-0.1-0.1-0.1c0,0-0.1-0.1-0.1-0.1c0-0.1,0.1-0.1,0.1-0.2c0,0.1,0,0.1,0.1,0.2C111.3,60.1,111.3,60.1,111.3,60.2
		C111.3,60.1,111.3,60.1,111.3,60.2C111.3,60.1,111.3,60.1,111.3,60.2C111.3,60.2,111.3,60.2,111.3,60.2z M111.4,52.5
		c-0.1,0-0.1-0.1-0.2-0.2c0,0,0-0.1,0-0.1c0-0.1,0.1-0.2,0.2-0.3c0.1,0.1,0.1,0.1,0,0.2c0.1,0,0.1,0,0.2,0.1
		C111.6,52.4,111.5,52.6,111.4,52.5z M124.4,60.8c-0.1,0-0.1-0.1-0.1-0.2c0,0,0.1-0.1,0.1-0.1c0,0,0.1,0.1,0.1,0.2
		C124.4,60.7,124.4,60.8,124.4,60.8z M124.5,58.5c0,0.3,0,0.5-0.2,0.6c0,0,0,0-0.1,0c0,0,0-0.1,0-0.1c0,0,0.2-0.1,0-0.1
		c-0.2-0.1-0.1-0.1,0-0.2C124.3,58.6,124.3,58.5,124.5,58.5C124.5,58.5,124.5,58.5,124.5,58.5C124.5,58.4,124.5,58.4,124.5,58.5
		C124.5,58.4,124.5,58.4,124.5,58.5C124.5,58.4,124.5,58.4,124.5,58.5C124.5,58.4,124.5,58.4,124.5,58.5
		C124.5,58.4,124.5,58.5,124.5,58.5z M124.6,58.1c0,0,0-0.1,0-0.1c0-0.1,0-0.2,0.1-0.2c0,0,0.1,0,0.1,0.1
		C124.7,58,124.6,58,124.6,58.1z M124.9,57.2c-0.1,0-0.1,0.1-0.2,0.1c0,0-0.1,0-0.1,0c0,0,0-0.1,0-0.1c0.1-0.1,0.2-0.2,0.4-0.4
		C125,57.1,125.1,57.2,124.9,57.2z M127.1,52.2c0,0.1,0,0.1,0.1,0.2c0,0.1,0,0.1,0,0.2c0-0.1,0-0.1,0-0.1
		C127.1,52.4,127,52.3,127.1,52.2C127,52.2,127.1,52.2,127.1,52.2z M126.9,52.5C127,52.5,127,52.5,126.9,52.5
		C127,52.5,127,52.5,126.9,52.5c0.1,0.1,0.1,0.1,0.2,0.1c0,0.2-0.1,0.2-0.1,0.3c0-0.1-0.1-0.2-0.1-0.2
		C126.9,52.6,126.9,52.6,126.9,52.5z M127.4,56.5c0,0.2-0.1,0.3-0.3,0.3c-0.2,0.1-0.3,0.2-0.4,0.4c0,0.1-0.1,0.2-0.1,0.2
		c-0.1,0.2-0.1,0.2,0.1,0.3c0,0,0,0,0.1,0.1c-0.2,0.1,0.1,0.1,0,0.2c-0.2,0.1-0.1,0.3-0.2,0.4c0,0.1-0.2,0.2,0,0.4c0,0,0,0.1,0,0.1
		c-0.1,0.1-0.1,0.2-0.1,0.3c0.1,0,0.1,0.1,0.1,0.2c-0.1,0.2-0.2,0.5-0.2,0.7c0,0-0.1,0.1-0.1,0.1c-0.1,0-0.1-0.1-0.1-0.2
		c-0.1,0-0.1,0.1-0.2,0.1c0,0-0.1,0-0.1,0c0,0,0-0.1,0-0.1c0.3-0.2,0.1-0.4,0-0.6c-0.2-0.1-0.2-0.3-0.3-0.5c0-0.1,0-0.1,0.1,0
		c0,0,0.1,0,0.1,0c0,0,0-0.1,0-0.1c0,0,0,0,0,0c-0.1,0-0.2,0-0.2-0.1c0.1-0.2-0.1-0.4,0.1-0.5c0.2-0.1,0.2-0.2,0.2-0.3
		c0,0,0-0.1,0-0.1c0.2-0.2,0.1-0.3-0.1-0.3c-0.1,0-0.1,0,0-0.1c0.1-0.2,0.2-0.4,0.3-0.6c0,0,0.1-0.1,0.1-0.1c0.1,0,0.1-0.1,0.2-0.1
		c0,0,0-0.2,0-0.2c0.1,0,0.2,0,0.2,0c0,0,0-0.1,0-0.1c0,0,0-0.1,0-0.1c-0.1-0.1,0.1-0.2,0-0.3c-0.1-0.1-0.2,0.1-0.3,0.1
		c-0.1,0-0.1-0.1-0.1-0.2c-0.1-0.1-0.2-0.1-0.3-0.2c0.2-0.1,0-0.4,0.2-0.6c0,0,0-0.1,0-0.1c0,0,0.1,0,0.1,0c0,0,0,0.1,0,0.1
		c0,0.1,0,0.1,0,0.2c0,0,0,0.1,0,0.1c0,0,0.1,0,0.1-0.1c0.1-0.1,0.2-0.2,0.2-0.4c0-0.1,0-0.2,0.1-0.2c0.2-0.2,0.2-0.3,0.2-0.6
		c0-0.2,0.1-0.2,0.2-0.3c0,0,0.1,0.1,0.1,0.1c0,0.2-0.1,0.5-0.2,0.7c0,0.1-0.1,0.1-0.1,0.2c0,0,0,0.1,0.1,0.1c0,0,0.1,0,0.1,0
		c-0.1-0.2,0.2-0.2,0.2-0.3c0-0.2,0.1-0.3,0.2-0.5c0,0,0,0,0-0.1c0.1,0,0,0.3,0.2,0.1c0,0,0.1,0,0.1,0c0,0.2,0,0.3,0,0.5
		c0,0-0.1,0-0.1,0.1c0,0,0,0-0.1,0.1c0.3,0.2,0,0.3-0.1,0.5c0,0.2-0.1,0.1-0.2,0.1c0,0-0.1,0-0.1,0c0,0,0,0,0.1,0.1
		c0.2,0.1,0.1,0.2,0.1,0.4c0,0,0,0.1,0,0.1c0,0,0.1,0,0.1,0c0.1-0.1,0.1-0.2,0.2-0.2C127.7,56,127.7,56.3,127.4,56.5z M127.7,55.6
		C127.7,55.6,127.7,55.6,127.7,55.6L127.7,55.6c0-0.1,0-0.2,0-0.3c0,0,0.1,0,0.1-0.1c0,0,0,0.1,0,0.1
		C127.8,55.4,127.8,55.5,127.7,55.6z M128.3,54.4c-0.1,0.1-0.2,0.2-0.2,0.3c-0.1-0.2,0.1-0.3,0.1-0.4c0,0,0.1-0.1,0.2-0.1
		C128.3,54.3,128.3,54.4,128.3,54.4z M138.5,25.5c0,0.1-0.1,0.2-0.1,0.3c0-0.1,0.1-0.3,0.1-0.4C138.5,25.5,138.6,25.5,138.5,25.5z
		 M134.7,38C134.7,38,134.8,38,134.7,38C134.8,38,134.8,38.1,134.7,38C134.7,38,134.7,38,134.7,38z M135.9,34.8
		C135.9,34.8,136,34.8,135.9,34.8C136,34.8,136,34.8,135.9,34.8C136,34.8,136,34.8,135.9,34.8z M135.8,35.5
		C135.8,35.5,135.8,35.5,135.8,35.5C135.8,35.5,135.8,35.6,135.8,35.5c0.1,0.1,0.1,0.2,0.1,0.2c0,0,0,0,0,0c0,0,0,0.1-0.1,0.1
		c0,0-0.1,0.1-0.1,0c0,0-0.1,0-0.1-0.1c0-0.1,0.1-0.1,0.1-0.2C135.7,35.6,135.7,35.5,135.8,35.5z M135.3,36.3c0-0.1,0.1-0.2,0.2-0.3
		c0.1,0.1,0.1,0.2,0.2,0.3c-0.1,0-0.1,0.1-0.2,0.1c-0.1,0.1-0.2,0.2,0,0.2c0.1,0,0.1,0.1,0.1,0.1c-0.1,0.2-0.1,0.2-0.1,0.4
		c0,0,0,0.1,0,0.1c0,0.1,0,0.2,0,0.2c0,0,0,0.1,0,0.1c-0.1,0-0.1,0-0.1,0.1c0,0.2,0,0.3-0.2,0.4c0,0-0.1,0.1-0.1,0.1
		c0,0,0,0.1,0,0.1c-0.1,0.1-0.2,0.2-0.3,0.3c0,0,0,0,0,0c0-0.2,0.1-0.4,0.1-0.6c0.1-0.2-0.1-0.1-0.1-0.1c0-0.1,0.1-0.2,0.1-0.3
		c0-0.1,0.1-0.2,0-0.3c0,0,0,0,0-0.1C135.1,37,135.2,36.7,135.3,36.3z M134.5,36c0-0.1,0-0.3,0.1-0.4c0-0.1,0.1-0.2,0.2-0.3
		c0.1-0.1,0.2,0,0.2,0.1c0,0,0,0.1,0,0.1c0,0,0,0.1,0,0.1c0,0.1-0.3-0.1-0.1,0.2c0,0.1,0,0.2-0.1,0.3c0,0.1-0.1,0.2-0.1,0.3
		c0,0.1-0.1,0.2-0.1,0.3c0,0-0.1,0.1-0.1,0.1c0,0-0.1-0.1-0.1-0.1c0-0.1,0.1-0.3,0-0.3C134.3,36.2,134.5,36.2,134.5,36z M133.2,39.8
		c0,0.1-0.1,0.2-0.1,0.3c0,0,0,0,0,0c0,0-0.1-0.1-0.1-0.1c0-0.1,0.1-0.2,0.1-0.3C133.1,39.8,133.2,39.8,133.2,39.8z M132.6,12.6
		c0,0,0-0.1,0-0.1c0-0.2,0.2-0.1,0.3-0.1c0.2,0,0,0.1,0.1,0.2c0,0.1,0,0.2-0.2,0.1c0,0-0.1,0-0.1,0.1c0,0,0,0.1-0.1,0.1
		C132.6,12.7,132.4,12.7,132.6,12.6z M132.9,12.8C132.9,12.8,132.8,12.9,132.9,12.8C132.8,12.9,132.8,12.9,132.9,12.8
		C132.8,12.8,132.8,12.8,132.9,12.8C132.8,12.8,132.9,12.8,132.9,12.8z M131.7,12.6c0.1-0.2,0.2-0.2,0.4,0c0,0,0.1,0,0.1,0
		c0,0,0,0.1,0,0.1c-0.1,0-0.2,0-0.3,0.2c0,0.1-0.2,0.1-0.3,0.2C131.5,12.9,131.6,12.8,131.7,12.6z M131.5,43.3l-0.1,0.3c0,0,0,0,0,0
		C131.4,43.5,131.4,43.4,131.5,43.3z M130.3,11.6c0,0,0.1,0,0.1,0c0,0,0,0,0,0c0,0,0,0,0,0c0,0,0,0,0,0c0,0,0,0,0.1,0c0,0,0,0,0,0.1
		c0-0.1,0.1,0,0.1,0c0,0,0,0,0,0.1c0,0,0,0,0,0c-0.1,0.2-0.2,0.3-0.3,0.3c0,0,0,0,0,0C130.3,11.7,130.3,11.6,130.3,11.6z
		 M129.1,52.6c0-0.1,0.1-0.3,0.1-0.4c0-0.1,0.1-0.2,0.1-0.3c0,0,0-0.1,0.1-0.1c0,0,0.1,0.1,0.1,0.1
		C129.4,52.2,129.3,52.4,129.1,52.6C129.2,52.6,129.2,52.6,129.1,52.6C129.1,52.6,129.1,52.6,129.1,52.6z M129,53.3
		C129,53.3,129,53.3,129,53.3c-0.1-0.1-0.1-0.1,0-0.2c0,0,0.1,0,0.1,0C129,53.2,129,53.2,129,53.3z M129.2,53.2
		C129.2,53.2,129.2,53.2,129.2,53.2C129.2,53.2,129.2,53.2,129.2,53.2C129.2,53.3,129.2,53.3,129.2,53.2
		C129.2,53.3,129.2,53.2,129.2,53.2C129.2,53.2,129.2,53.2,129.2,53.2c0-0.1,0-0.2-0.1-0.2c-0.1-0.1-0.2-0.2,0-0.4
		c0,0.1,0,0.3,0.2,0.3c0,0,0.1,0.1,0.1,0.1C129.4,53.1,129.3,53.2,129.2,53.2z M129.8,52.8C129.8,52.8,129.8,52.8,129.8,52.8
		c-0.2-0.3-0.3,0.1-0.4,0c0,0-0.1,0-0.1,0c0,0,0-0.1,0-0.1c0.1-0.1,0.1-0.2,0.2-0.3c0,0,0-0.1,0.1-0.1c0,0,0,0.1,0,0.1
		c0.1,0.1,0.1,0.1,0.2,0.2C129.8,52.7,129.8,52.7,129.8,52.8z M129.6,51.2C129.6,51.2,129.7,51.1,129.6,51.2c0.1,0,0.1,0,0.1,0.1
		c0,0-0.1,0-0.1,0C129.6,51.3,129.6,51.3,129.6,51.2z M130.1,52.8C130.1,52.8,130.1,52.8,130.1,52.8c-0.1,0-0.1,0-0.1,0
		c0-0.1,0.1-0.1,0.1-0.1c0,0,0,0,0.1,0c0,0,0,0,0,0.1C130.2,52.7,130.2,52.7,130.1,52.8z M130.3,51.9c0,0.2,0,0.3,0,0.4
		c0,0-0.1,0.1-0.1,0.1c0,0-0.1,0-0.1-0.1C130.1,52.2,130.2,52.1,130.3,51.9C130.3,51.9,130.3,51.9,130.3,51.9c0-0.1,0-0.1,0-0.2
		C130.3,51.8,130.3,51.9,130.3,51.9C130.4,51.8,130.4,51.9,130.3,51.9C130.4,51.9,130.4,51.9,130.3,51.9z M130.4,49.4
		c0,0-0.1,0.1,0,0.1c0.1,0.1-0.1,0.3,0,0.4c0,0-0.1,0-0.1,0c-0.2,0-0.2,0-0.1,0.1c0,0,0,0.1-0.1,0.1c0,0-0.1-0.1-0.1-0.1
		c0-0.1,0-0.3-0.1-0.2c-0.3,0.2-0.2-0.1-0.2-0.1c0.2-0.1,0-0.2,0-0.2c0.1-0.1,0.1-0.2,0.1-0.3c0-0.1,0.1-0.2,0.1-0.4
		c0.1,0.2,0.1,0.2,0,0.3c-0.1,0.1,0,0.2,0.1,0.2c0.1,0,0.1,0,0.1-0.1c0-0.2,0.1-0.4,0.1-0.6c0,0.1,0.1,0.2,0.1,0.3
		C130.6,49.3,130.6,49.3,130.4,49.4z M129.8,48.4C129.8,48.4,129.8,48.4,129.8,48.4c0.1,0,0.1,0,0.1,0.1c-0.1,0.2-0.1,0.4-0.2,0.6
		C129.5,48.8,129.7,48.6,129.8,48.4z M130.8,46.3c-0.1,0-0.2,0.1-0.2,0.1c0,0.1,0.1,0.1,0.1,0.2c-0.1,0.3-0.3,0.5-0.3,0.7
		c0,0.1-0.3,0-0.1,0.2c0,0-0.1,0.2-0.1,0.3c-0.1,0.2-0.2,0.4-0.4,0.5c0,0-0.1,0-0.1,0c0,0,0,0,0-0.1c0-0.1,0.1-0.2,0.1-0.2
		c0,0,0-0.2,0-0.2c-0.3,0-0.2-0.3-0.1-0.4c0.1-0.4,0.3-0.7,0.4-1.1c0-0.1,0.1-0.1,0.1-0.2c0.2,0.2,0.1-0.1,0.1-0.1
		c0.1,0,0.1,0,0.2,0c0.1,0,0.1,0,0.1,0C130.7,46.1,130.7,46.1,130.8,46.3C130.8,46.2,130.8,46.2,130.8,46.3z M130.8,46.1
		C130.8,46.1,130.8,46.1,130.8,46.1C130.8,46.1,130.8,46.1,130.8,46.1C130.8,46.1,130.9,46.1,130.8,46.1
		C130.8,46.1,130.8,46.1,130.8,46.1z M131,44.5C130.9,44.5,130.9,44.4,131,44.5c0.1-0.2-0.1-0.4,0-0.5c0.1-0.1,0.2-0.2,0.3-0.2
		c0.1-0.1,0.1-0.1,0.2-0.2c0.2-0.1,0-0.4,0.2-0.5c0,0,0,0,0,0c0.4-0.7,0.4-0.6,0.5-0.5c0,0,0,0.1,0,0.1c-0.1,0.2-0.2,0.3-0.1,0.5
		c0,0,0,0.1,0,0.1c-0.1,0.2-0.2,0.3-0.2,0.5c0,0.2-0.2,0.3-0.1,0.5c0,0.1-0.1,0.1-0.1,0.1c-0.1,0.2-0.2,0.4-0.3,0.5
		c0,0.1,0,0.1,0,0.2c0,0-0.1,0.1-0.1,0.1c0-0.1,0-0.1,0-0.2c0-0.1,0.1-0.1,0-0.2C131.1,44.8,131.2,44.5,131,44.5z M131.6,46.8
		c0,0.1-0.1,0.2-0.1,0.2c0,0.1-0.2,0.2,0,0.3c0,0.1-0.1,0.2-0.1,0.2c0,0-0.1,0-0.2-0.1c0,0-0.1-0.1,0-0.1c0.2-0.1,0.1-0.4,0.3-0.5
		c0.1-0.1,0-0.2-0.1-0.2c-0.1-0.1-0.1-0.1,0-0.2c0.2-0.2,0.2-0.2,0.2-0.3c0,0,0-0.1,0-0.1c0,0,0,0,0.1-0.1c0,0.1,0,0.3,0.1,0.3
		c0.3,0.2,0,0.4,0,0.6C131.8,46.8,131.6,46.6,131.6,46.8z M131.8,47.6C131.8,47.6,131.9,47.6,131.8,47.6c0,0.1,0,0.1,0,0.2
		c0,0,0,0-0.1-0.1C131.7,47.6,131.8,47.6,131.8,47.6z M132,48.4c0,0-0.1-0.1-0.2-0.1c-0.1-0.1,0-0.3-0.1-0.3
		c0.1-0.1,0.2-0.2,0.3-0.3c0.1,0.1,0.1,0.1,0.1,0.1c0,0.1,0,0.1,0,0.2c0,0.1,0,0.1,0,0.2C132,48.3,132.2,48.3,132,48.4z M132.9,45.5
		c0,0,0-0.1,0-0.1c0,0,0,0,0-0.1C132.9,45.4,133,45.4,132.9,45.5C133,45.5,132.9,45.5,132.9,45.5z M133.1,45.1c0,0,0,0.1,0,0.1
		c-0.4,0-0.3,0.3-0.4,0.5c0-0.1,0-0.2,0-0.2c0-0.2-0.1-0.1-0.2-0.2c-0.1-0.1-0.1,0-0.2,0.1c-0.1,0-0.1,0-0.1-0.1
		c-0.1-0.1-0.2-0.1-0.3-0.1c0,0-0.1,0.1-0.1,0.1c-0.1,0-0.1,0.2-0.2,0.1c0.1-0.1-0.3-0.2,0.1-0.2c0,0,0-0.1,0-0.1
		c-0.1-0.1-0.1-0.1,0-0.2c0,0,0.1,0.1,0.1,0.1c0,0,0.1-0.1,0.1-0.1c0-0.1,0.3-0.2,0-0.3c-0.1,0,0.3-0.1,0.1-0.2
		c-0.1-0.1,0.1-0.2,0-0.4c0,0,0,0,0.1,0c0.1,0,0.3-0.1,0.4-0.2c0,0,0,0,0,0c0,0,0-0.1,0-0.1c0,0,0-0.1,0.1-0.1c0,0.1,0,0.1,0,0.2
		c0-0.1,0.1,0,0.1,0c0,0,0,0-0.1,0c0,0.1,0,0.1,0,0.1c0.1,0,0.1,0,0.1,0.1c-0.1,0.1,0,0.3,0,0.4c0,0,0.1,0,0.2,0.1c0,0,0-0.1,0-0.1
		l0,0c0.1-0.1,0.1-0.1,0.1,0c0,0,0,0-0.1,0l0.1,0.2c0,0,0.1,0,0.1,0c0,0,0-0.1,0-0.1c0-0.1,0.1-0.2,0.1-0.2c0.1,0.1,0.1,0.2,0,0.3
		c-0.1,0.1-0.1,0.2,0,0.3c0,0,0,0,0,0C133.1,45,133.1,45.1,133.1,45.1z M133.2,44.8C133.2,44.8,133.2,44.8,133.2,44.8
		C133.2,44.8,133.2,44.8,133.2,44.8C133.2,44.8,133.2,44.8,133.2,44.8z M133.2,44.9C133.2,44.9,133.2,44.9,133.2,44.9
		C133.2,44.8,133.3,44.8,133.2,44.9C133.2,44.8,133.2,44.9,133.2,44.9z M133.8,42.9C133.8,42.9,133.9,42.9,133.8,42.9L133.8,42.9z
		 M133.8,42.9l-0.1-0.1c-0.1-0.1-0.2-0.1-0.2,0c0,0.2-0.2,0.1-0.2,0.2c0,0.1-0.1,0.2-0.2,0.4c0-0.1-0.1-0.1-0.1-0.2
		c-0.3-0.3-0.3-0.5-0.1-0.9c0-0.1,0.1-0.2,0.1-0.3c0-0.1,0.1-0.1,0.2-0.1c0,0,0-0.1,0.1-0.1c0,0.1,0,0.2,0,0.2c0,0,0,0,0.1,0
		c0,0,0.1,0,0.1,0c0-0.2,0.1-0.4,0.1-0.6c0,0,0,0-0.1,0c0-0.1-0.1-0.2,0.1-0.1c0,0,0.1,0,0.1,0c0,0,0,0,0,0c0.1,0.2,0,0.4,0.1,0.5
		c0.1,0.2,0.1,0.4,0.1,0.5c0,0.1,0,0.2,0,0.3C133.9,42.6,133.9,42.7,133.8,42.9z M133.5,41.4C133.5,41.3,133.5,41.3,133.5,41.4
		C133.5,41.4,133.5,41.4,133.5,41.4C133.5,41.4,133.5,41.4,133.5,41.4z M136.6,48.9c0.1,0.2-0.2,0.3,0,0.5c0,0,0,0,0,0
		c0,0-0.1,0-0.1,0c0-0.1-0.1-0.2-0.1-0.3c0-0.1,0-0.2-0.1-0.3c0,0,0.1-0.2,0.2-0.2c0.1,0,0.1-0.1,0.2-0.1c0,0,0,0,0,0.1
		c0,0,0,0.1-0.1,0.1c0.1,0.1,0.1,0.1,0.2,0.2C136.7,48.8,136.6,48.9,136.6,48.9z M139.5,23.9C139.5,23.9,139.5,23.9,139.5,23.9
		c-0.1,0.1-0.1,0.2-0.1,0.3c0,0.1-0.1,0.2-0.2,0.1c0-0.1,0-0.2,0-0.2c-0.1,0-0.2,0.1-0.3,0.1c0-0.1,0-0.2,0.1-0.2
		c0.1-0.1,0.1-0.2,0.2-0.3c0.1,0,0.1,0,0.2,0c-0.1,0.1-0.1,0.2-0.2,0.3C139.3,24,139.4,24,139.5,23.9
		C139.5,23.9,139.5,23.9,139.5,23.9C139.5,23.9,139.5,23.9,139.5,23.9C139.5,23.9,139.5,23.9,139.5,23.9
		C139.5,23.9,139.5,23.9,139.5,23.9z"/>
	<path class="st0" d="M167.8,38C167.7,38,167.7,37.9,167.8,38C167.7,38,167.7,38,167.8,38C167.7,38,167.8,38,167.8,38z"/>
	<path class="st0" d="M157.6,40.1C157.6,40.2,157.6,40.2,157.6,40.1C157.6,40.2,157.6,40.2,157.6,40.1
		C157.6,40.1,157.6,40.1,157.6,40.1z"/>
	<path class="st0" d="M172.5,27.2C172.5,27.2,172.5,27.1,172.5,27.2C172.5,27.2,172.5,27.2,172.5,27.2
		C172.5,27.2,172.5,27.2,172.5,27.2z"/>
	<path class="st0" d="M157.5,40.5C157.5,40.5,157.5,40.5,157.5,40.5C157.5,40.5,157.5,40.5,157.5,40.5
		C157.5,40.5,157.5,40.5,157.5,40.5z"/>
	<path class="st0" d="M141.8,57.1C141.8,57.1,141.8,57.2,141.8,57.1C141.8,57.2,141.8,57.1,141.8,57.1
		C141.8,57.1,141.8,57.1,141.8,57.1z"/>
	<path class="st0" d="M154.9,30C154.9,30,154.9,30,154.9,30C154.9,30,154.9,30,154.9,30C154.9,30,154.9,30,154.9,30
		C154.9,30,154.9,30,154.9,30z"/>
	<path class="st0" d="M139.5,23.9C139.5,23.9,139.5,23.9,139.5,23.9C139.5,23.9,139.5,23.9,139.5,23.9
		C139.5,23.9,139.5,23.9,139.5,23.9z"/>
</g>
</svg>
