<svg id="Calque_1" data-name="Calque 1" xmlns="http://www.w3.org/2000/svg" viewBox="0 0 504 504"><defs><style>.cls-1{fill:#fff;}</style></defs><title>insta</title><path d="M55,382q0-83,0-166a33.43,33.43,0,0,0,.8-4.72c.58-19.48,1.46-38.92,6.23-57.94C72.8,110.42,97.69,79.2,138.62,61.5c22.19-9.6,45.78-12.39,69.68-13.36,5.24-.21,10.47-.75,15.7-1.14H390a33.44,33.44,0,0,0,4.72.8c19.48.58,38.92,1.46,57.94,6.23,42.91,10.77,74.14,35.66,91.84,76.59,9.6,22.19,12.38,45.78,13.36,69.68.22,5.24.75,10.47,1.14,15.7V382a33.41,33.41,0,0,0-.8,4.72c-.58,19.48-1.46,38.92-6.23,57.94-10.77,42.91-35.66,74.14-76.58,91.84-22.19,9.6-45.78,12.38-69.68,13.36-5.24.22-10.47.75-15.7,1.14H224a33.41,33.41,0,0,0-4.72-.8c-19.48-.58-38.92-1.46-57.94-6.23C118.42,533.2,87.2,508.31,69.5,467.38c-9.6-22.19-12.39-45.78-13.36-69.68C55.92,392.46,55.39,387.23,55,382Zm458.94-83h-.78c0-21,.41-42-.12-63-.5-19.79-1.24-39.63-3.25-59.3-1.92-18.82-8.55-36.17-21.26-50.8-17.78-20.47-41.24-29.09-67.22-30.68-29.56-1.8-59.23-2.25-88.85-2.61s-59-.24-88.47.35c-19.79.4-39.63,1.24-59.3,3.25-18.82,1.92-36.17,8.55-50.8,21.26-20.47,17.78-29.09,41.24-30.68,67.22-1.8,29.56-2.25,59.23-2.61,88.85s-.24,59,.35,88.47c.4,19.79,1.24,39.63,3.25,59.3,1.92,18.82,8.55,36.17,21.26,50.8,17.78,20.47,41.24,29.09,67.22,30.68,29.56,1.8,59.23,2.25,88.85,2.61s59,.37,88.46-.39c21.77-.56,43.75-1,65.18-4.34,36.63-5.75,61.41-27,71.28-63.34a163.4,163.4,0,0,0,5.32-36.45C513,366.93,513.29,332.94,513.94,299Z" transform="translate(-55 -47)"/><path d="M436.51,299.11a129.42,129.42,0,0,1-129.87,129.4c-71.39-.1-129.2-58.12-129.15-129.62a129.51,129.51,0,1,1,259,.22ZM306.93,382.83c45.87,0,83.86-37.53,83.9-82.89,0-46.72-37.18-84.74-83-84.78-46.9,0-84.65,37.26-84.65,83.64A83.93,83.93,0,0,0,306.93,382.83Z" transform="translate(-55 -47)"/><path d="M441.24,134.16a30.4,30.4,0,1,1,.21,60.8,30.4,30.4,0,0,1-.21-60.8Z" transform="translate(-55 -47)"/><path class="cls-1" d="M306.93,382.83a83.93,83.93,0,0,1-83.76-84c0-46.38,37.75-83.67,84.65-83.64,45.83,0,83.06,38.05,83,84.78C390.79,345.3,352.8,382.83,306.93,382.83Z" transform="translate(-55 -47)"/></svg>